<svg viewBox="0 0 466.02 441.21" xmlns="http://www.w3.org/2000/svg"><ellipse cx="233.01" cy="306.68" fill="#f5f5f5" rx="233.01" ry="134.53"/><ellipse cx="231.18" cy="224.82" fill="#e0e0e0" rx="50.64" ry="29.24"/><path d="m334.39 428.74c-23.59-14.34-23.59-37.59 0-51.93s61.84-14.34 85.43 0 23.6 37.59 0 51.93-61.82 14.35-85.43 0z" fill="#e0e0e0" transform="translate(-23.48 -38.76)"/><ellipse cx="84.43" cy="337.63" fill="#e0e0e0" rx="55.13" ry="31.83"/><path d="m340.8 115.75-16.08-16.65-9 .69z" fill="#27debf"/><path d="m340.8 115.75-13.15-17.56 4.65-3.35z" fill="#27debf"/><path d="m327.65 98.19-.75 3.17 13.9 14.39z" fill="#27debf"/><path d="m327.65 98.19-.75 3.17 13.9 14.39z" opacity=".3"/><path d="m111.55 142.56 19.28-17.82 10.13 1.36z" fill="#27debf"/><path d="m111.55 142.56 16.01-19.04-5.04-4.08z" fill="#27debf"/><path d="m127.56 123.52.65 3.64-16.66 15.4z" fill="#27debf"/><path d="m127.56 123.52.65 3.64-16.66 15.4z" opacity=".3"/><path d="m293.99 204.38 20.56-13.17 9.05 2.91z" fill="#27debf"/><path d="m293.99 204.38 17.77-14.82-3.95-4.56z" fill="#27debf"/><path d="m311.76 189.56v3.44l-17.77 11.38z" fill="#27debf"/><path d="m311.76 189.56v3.44l-17.77 11.38z" opacity=".3"/><path d="m162.38 257.97-23.89-15.29-10.52 3.37z" fill="#27debf"/><path d="m162.38 257.97-20.65-17.21 4.59-5.3z" fill="#27debf"/><path d="m141.73 240.76v3.99l20.65 13.22z" fill="#27debf"/><path d="m141.73 240.76v3.99l20.65 13.22z" opacity=".3"/><g transform="translate(-23.48 -38.76)"><path d="m131.49 239.08a.47.47 0 0 1 -.45-.37l-.27-1.37a.46.46 0 0 1 .91-.17c.09.45.17.9.27 1.35a.47.47 0 0 1 -.36.55z" fill="#e0e0e0"/><path d="m155.89 276.29a.5.5 0 0 1 -.26-.08q-1.19-.81-2.34-1.68a.46.46 0 0 1 -.08-.65.47.47 0 0 1 .65-.09c.74.57 1.51 1.13 2.29 1.65a.47.47 0 0 1 -.26.85zm-4.53-3.45a.48.48 0 0 1 -.3-.11c-.72-.61-1.44-1.26-2.14-1.92a.47.47 0 1 1 .64-.68c.69.66 1.4 1.29 2.1 1.89a.46.46 0 0 1 .05.65.46.46 0 0 1 -.35.17zm-4.14-3.91a.44.44 0 0 1 -.33-.15c-.65-.67-1.3-1.39-1.94-2.12a.47.47 0 0 1 .05-.66.45.45 0 0 1 .65.05c.63.71 1.27 1.42 1.91 2.08a.47.47 0 0 1 0 .66.48.48 0 0 1 -.34.14zm-3.73-4.3a.46.46 0 0 1 -.37-.18c-.58-.74-1.16-1.51-1.72-2.29a.45.45 0 0 1 .1-.64.46.46 0 0 1 .65.1c.55.77 1.12 1.53 1.7 2.26a.46.46 0 0 1 -.08.65.42.42 0 0 1 -.28.1zm-3.33-4.63a.44.44 0 0 1 -.38-.21c-.52-.79-1-1.61-1.51-2.44a.46.46 0 0 1 .16-.63.46.46 0 0 1 .64.17c.48.81 1 1.61 1.48 2.4a.47.47 0 0 1 -.13.64.48.48 0 0 1 -.26.07zm-2.88-4.9a.46.46 0 0 1 -.41-.25c-.44-.85-.88-1.71-1.28-2.57a.45.45 0 0 1 .22-.61.47.47 0 0 1 .62.22c.4.84.82 1.69 1.26 2.53a.46.46 0 0 1 -.19.62.46.46 0 0 1 -.22.06zm-2.42-5.16a.46.46 0 0 1 -.43-.28c-.36-.87-.71-1.77-1-2.68a.46.46 0 0 1 .28-.59.47.47 0 0 1 .59.28c.32.89.67 1.78 1 2.63a.47.47 0 0 1 -.24.61.57.57 0 0 1 -.2.03zm-1.94-5.35a.46.46 0 0 1 -.44-.33c-.28-.91-.55-1.84-.79-2.75a.48.48 0 0 1 .34-.57.46.46 0 0 1 .56.33c.23.91.49 1.82.77 2.72a.46.46 0 0 1 -.3.58z" fill="#e0e0e0"/><path d="m159.51 278.49a.43.43 0 0 1 -.22-.06c-.41-.22-.82-.45-1.22-.69a.45.45 0 0 1 -.17-.63.46.46 0 0 1 .63-.17c.4.24.8.46 1.2.67a.47.47 0 0 1 -.22.88z" fill="#e0e0e0"/><path d="m199.6 144.76a.46.46 0 0 1 0-.92c.47 0 .93-.07 1.4-.09a.47.47 0 0 1 .48.44.45.45 0 0 1 -.43.48l-1.38.09z" fill="#e0e0e0"/><path d="m159.33 158.82a.47.47 0 0 1 -.38-.19.47.47 0 0 1 .11-.65c.74-.52 1.49-1 2.25-1.52a.47.47 0 0 1 .64.13.46.46 0 0 1 -.14.64c-.75.49-1.49 1-2.22 1.51a.5.5 0 0 1 -.26.08zm4.52-2.94a.46.46 0 0 1 -.24-.86c.78-.47 1.56-.92 2.35-1.36a.47.47 0 0 1 .63.18.45.45 0 0 1 -.18.63c-.78.44-1.56.88-2.32 1.34a.44.44 0 0 1 -.24.07zm4.72-2.61a.45.45 0 0 1 -.41-.26.47.47 0 0 1 .2-.62c.81-.41 1.62-.8 2.45-1.18a.46.46 0 0 1 .61.22.47.47 0 0 1 -.22.62c-.81.37-1.62.76-2.42 1.17a.5.5 0 0 1 -.21.05zm4.9-2.27a.48.48 0 0 1 -.43-.29.46.46 0 0 1 .25-.6q1.25-.54 2.52-1a.46.46 0 0 1 .59.27.44.44 0 0 1 -.26.59c-.84.33-1.67.66-2.49 1a.58.58 0 0 1 -.18.03zm5-1.94a.47.47 0 0 1 -.44-.31.46.46 0 0 1 .29-.59q1.27-.45 2.58-.84a.46.46 0 0 1 .58.3.47.47 0 0 1 -.31.58c-.86.27-1.71.54-2.55.84zm5.15-1.59a.46.46 0 0 1 -.44-.34.46.46 0 0 1 .32-.57c.87-.24 1.75-.46 2.63-.67a.47.47 0 0 1 .56.34.46.46 0 0 1 -.34.56c-.87.21-1.74.43-2.6.66zm5.25-1.25a.47.47 0 0 1 -.45-.37.46.46 0 0 1 .36-.54c.89-.18 1.78-.35 2.67-.5a.47.47 0 0 1 .53.38.45.45 0 0 1 -.37.53c-.89.15-1.77.32-2.64.49zm5.33-.9a.46.46 0 0 1 -.46-.4.46.46 0 0 1 .39-.52q1.35-.18 2.7-.33a.47.47 0 0 1 .09.93c-.89.09-1.78.19-2.66.32z" fill="#e0e0e0"/><path d="m156 161.27a.48.48 0 0 1 -.36-.17.45.45 0 0 1 .08-.65l1.1-.86a.46.46 0 0 1 .56.74l-1.09.84a.46.46 0 0 1 -.29.1z" fill="#e0e0e0"/><path d="m340.82 225.6a.47.47 0 0 1 -.37-.19.46.46 0 0 1 .1-.65l.66-.49a.46.46 0 1 1 .56.74l-.67.5a.47.47 0 0 1 -.28.09zm2.87-2.19a.45.45 0 0 1 -.36-.18.47.47 0 0 1 .07-.65c.72-.57 1.44-1.15 2.14-1.75a.46.46 0 1 1 .6.71q-1.06.9-2.16 1.77a.51.51 0 0 1 -.29.1zm4.25-3.59a.48.48 0 0 1 -.35-.16.46.46 0 0 1 0-.65c.68-.62 1.35-1.24 2-1.88a.46.46 0 1 1 .64.66c-.67.65-1.35 1.29-2 1.91a.47.47 0 0 1 -.29.12zm4-3.86a.45.45 0 0 1 -.32-.13.46.46 0 0 1 0-.65c.64-.66 1.28-1.34 1.9-2a.46.46 0 0 1 .68.62c-.63.69-1.27 1.37-1.91 2a.49.49 0 0 1 -.35.2zm3.74-4.12a.41.41 0 0 1 -.3-.11.46.46 0 0 1 -.06-.65c.6-.7 1.18-1.42 1.74-2.14a.46.46 0 0 1 .73.57c-.57.73-1.16 1.46-1.76 2.17a.44.44 0 0 1 -.35.16zm3.41-4.38a.48.48 0 0 1 -.27-.09.46.46 0 0 1 -.1-.64q.81-1.12 1.56-2.28a.48.48 0 0 1 .65-.13.47.47 0 0 1 .13.64q-.78 1.17-1.59 2.31a.47.47 0 0 1 -.38.19zm3.06-4.64a.44.44 0 0 1 -.24-.07.46.46 0 0 1 -.16-.63c.47-.79.93-1.59 1.37-2.4a.46.46 0 1 1 .81.44q-.66 1.23-1.38 2.43a.46.46 0 0 1 -.4.23zm2.64-4.89a.47.47 0 0 1 -.42-.66c.4-.83.79-1.68 1.14-2.52a.47.47 0 0 1 .61-.24.46.46 0 0 1 .25.61c-.37.85-.76 1.71-1.16 2.55a.48.48 0 0 1 -.42.26zm2.17-5.11h-.16a.47.47 0 0 1 -.27-.6c.32-.87.62-1.74.89-2.61a.46.46 0 1 1 .88.28c-.27.88-.58 1.77-.9 2.65a.47.47 0 0 1 -.4.28zm1.66-5.31h-.12a.48.48 0 0 1 -.33-.57c.23-.89.43-1.79.61-2.68a.46.46 0 0 1 .91.18c-.18.91-.39 1.82-.62 2.73a.48.48 0 0 1 -.45.34zm1.09-5.44h-.06a.45.45 0 0 1 -.39-.52c.13-.91.24-1.83.32-2.73a.49.49 0 0 1 .51-.42.47.47 0 0 1 .42.5c-.09.92-.2 1.86-.34 2.78a.46.46 0 0 1 -.46.39zm.52-5.53a.46.46 0 0 1 -.44-.48c0-.71 0-1.42 0-2.14v-.61a.45.45 0 0 1 .45-.47.47.47 0 0 1 .46.46v.61c0 .74 0 1.47-.05 2.19a.45.45 0 0 1 -.42.44zm-.06-5.55a.47.47 0 0 1 -.47-.43c-.05-.91-.13-1.84-.24-2.75a.48.48 0 0 1 .41-.51.46.46 0 0 1 .51.41c.11.92.19 1.86.25 2.79a.47.47 0 0 1 -.43.49zm-.62-5.52a.46.46 0 0 1 -.46-.39c-.14-.89-.32-1.8-.51-2.71a.47.47 0 0 1 .36-.55.46.46 0 0 1 .55.36c.19.92.37 1.85.51 2.75a.46.46 0 0 1 -.38.53z" fill="#e0e0e0"/><path d="m342.21 132.17a.45.45 0 0 1 -.25-.07c-.78-.49-1.57-1-2.36-1.42a.46.46 0 0 1 -.18-.63.47.47 0 0 1 .64-.17c.8.46 1.6.94 2.39 1.44a.47.47 0 0 1 .15.64.46.46 0 0 1 -.39.21zm-4.82-2.76a.59.59 0 0 1 -.22 0c-.81-.43-1.64-.84-2.47-1.23a.46.46 0 0 1 -.22-.61.48.48 0 0 1 .62-.23c.84.4 1.67.82 2.5 1.25a.46.46 0 0 1 -.21.87zm-5-2.37a.57.57 0 0 1 -.18 0c-.85-.36-1.7-.71-2.56-1a.47.47 0 1 1 .33-.87c.87.33 1.74.68 2.59 1a.46.46 0 0 1 -.18.89zm-5.19-2h-.15c-.87-.3-1.75-.57-2.63-.83a.46.46 0 0 1 -.31-.58.45.45 0 0 1 .57-.31c.9.26 1.78.54 2.67.84a.47.47 0 0 1 .29.59.47.47 0 0 1 -.47.32zm-5.33-1.57h-.11c-.89-.23-1.79-.44-2.69-.63a.47.47 0 0 1 -.35-.56.46.46 0 0 1 .55-.35c.91.2 1.81.41 2.72.64a.48.48 0 0 1 .33.57.46.46 0 0 1 -.48.36zm-5.42-1.19h-.09c-.9-.17-1.81-.31-2.72-.44a.46.46 0 1 1 .13-.92q1.38.19 2.76.45a.45.45 0 0 1 .37.53.46.46 0 0 1 -.48.41zm-5.5-.78h-.05c-.92-.1-1.84-.18-2.75-.25a.46.46 0 0 1 -.43-.49.44.44 0 0 1 .49-.43q1.4.09 2.79.24a.47.47 0 0 1 -.05.93z" fill="#e0e0e0"/><path d="m384 142.08 7.86-4.54a.74.74 0 0 0 .37-.33l1.44-2.52-4.67-2.69.14.41z" fill="#27debf"/><path d="m384 142.08 7.86-4.54a.74.74 0 0 0 .37-.33l1.44-2.52-4.67-2.69.14.41z" opacity=".1"/><path d="m389.67 132.38-5.44 9.42a.81.81 0 0 1 -1.47-.14l-5.76-16.59z" fill="#27debf"/><path d="m333.82 65a8.41 8.41 0 0 1 3.79-6.58 8.41 8.41 0 0 1 7.6 0l61.52 35.48a8.41 8.41 0 0 1 3.8 6.58v31.16a8.4 8.4 0 0 1 -3.8 6.58 8.41 8.41 0 0 1 -7.6 0l-61.87-35.74c-3.41-1.95-3.44-3.9-3.44-6.32z" fill="#27debf"/><path d="m390.08 110.76-43.94-25.5c-1.27-.73-2.3-.39-2.3.75a4.6 4.6 0 0 0 2.3 3.41l43.94 25.49c1.27.74 2.3.4 2.3-.74a4.6 4.6 0 0 0 -2.3-3.41z" fill="#455a64"/><path d="m376.77 111.93-30.63-17.75c-1.27-.74-2.3-.4-2.3.74a4.6 4.6 0 0 0 2.3 3.41l30.63 17.75c1.27.74 2.3.4 2.3-.74a4.6 4.6 0 0 0 -2.3-3.41z" fill="#455a64"/><path d="m390.08 101.77-43.94-25.49c-1.27-.74-2.3-.4-2.3.75a4.62 4.62 0 0 0 2.3 3.41l43.94 25.49c1.27.73 2.3.4 2.3-.75a4.62 4.62 0 0 0 -2.3-3.41z" fill="#455a64"/><path d="m410.53 131.63a8.4 8.4 0 0 1 -3.8 6.58 8.45 8.45 0 0 1 -7 .32c1.79.68 3.15-.34 3.15-2.51v-31.17a7.72 7.72 0 0 0 -1.11-3.74l7.6-4.38a7.83 7.83 0 0 1 1.11 3.74z" opacity=".1"/><path d="m333.94 63.9c.44-1.61 1.91-2.12 3.67-1.11l61.53 35.49a7.53 7.53 0 0 1 2.67 2.83l7.59-4.37a7.64 7.64 0 0 0 -2.67-2.84l-61.51-35.49a8.49 8.49 0 0 0 -7.61 0 8.37 8.37 0 0 0 -3.67 5.49z" fill="#fff" opacity=".3"/><path d="m100.26 118.24-7.52-4.34a.71.71 0 0 1 -.35-.31l-1.39-2.42 4.46-2.57-.14.39z" fill="#27debf"/><path d="m100.26 118.24-7.52-4.34a.71.71 0 0 1 -.35-.31l-1.39-2.42 4.46-2.57-.14.39z" fill="#fff" opacity=".55"/><path d="m94.79 109 5.2 9a.77.77 0 0 0 1.4-.13l5.5-15.87z" fill="#27debf"/><path d="m94.79 109 5.2 9a.77.77 0 0 0 1.4-.13l5.5-15.87z" fill="#fff" opacity=".7"/><path d="m114.56 63.66a8 8 0 0 0 -3.63-6.3 8 8 0 0 0 -7.26 0l-58.84 33.95a8 8 0 0 0 -3.64 6.29v29.8a8 8 0 0 0 3.64 6.29 8 8 0 0 0 7.26 0l59.18-34.19c3.26-1.86 3.29-3.73 3.29-6z" fill="#27debf"/><path d="m114.57 63.66v29.79c0 2.32 0 4.19-3.3 6l-59.18 34.24a5.92 5.92 0 0 1 -.62.3h-.08-.1l-.14.05h.06c-1.58.45-2.75-.53-2.75-2.49v-29.8a7.5 7.5 0 0 1 1.06-3.58 7.17 7.17 0 0 1 2.56-2.72l58.85-33.94c1.68-1 3.08-.47 3.51 1.06a7.63 7.63 0 0 0 -.55-1.74 6.63 6.63 0 0 1 .68 2.83z" fill="#fff" opacity=".7"/><path d="m41.19 127.4a8 8 0 0 0 3.64 6.29 8.12 8.12 0 0 0 6.64.31c-1.71.65-3-.33-3-2.4v-29.8a7.5 7.5 0 0 1 1.06-3.58l-7.27-4.22a7.4 7.4 0 0 0 -1.07 3.58z" fill="#fff" opacity=".55"/><path d="m114.44 62.62c-.42-1.54-1.83-2-3.5-1.06l-58.85 33.94a7.29 7.29 0 0 0 -2.56 2.71l-7.26-4.21a7.32 7.32 0 0 1 2.56-2.72l58.83-33.94a8.09 8.09 0 0 1 7.27 0 8 8 0 0 1 3.51 5.28z" fill="#fff" opacity=".85"/><path d="m58.22 108.9 42-24.38c1.22-.71 2.2-.39 2.2.71a4.39 4.39 0 0 1 -2.2 3.26l-42 24.38c-1.21.7-2.2.38-2.2-.71a4.42 4.42 0 0 1 2.2-3.26z" fill="#455a64"/><path d="m58.22 117.52 29.3-17c1.21-.7 2.2-.38 2.2.72a4.45 4.45 0 0 1 -2.2 3.26l-29.3 17c-1.21.71-2.2.39-2.2-.71a4.42 4.42 0 0 1 2.2-3.27z" fill="#455a64"/><path d="m58.22 100.3 42-24.38c1.22-.7 2.2-.38 2.2.72a4.41 4.41 0 0 1 -2.2 3.26l-42 24.38c-1.21.7-2.2.38-2.2-.72a4.42 4.42 0 0 1 2.2-3.26z" fill="#455a64"/><path d="m223.28 50a1.06 1.06 0 0 0 -.5-.13h-9.11l-3.76 2.13v13l3.76-2.17 3.25-3.76v10l3.76-2.17 9.86-11.39a1 1 0 0 0 -.25-1.51z" fill="#455a64"/><path d="m216.92 69.1 3.76-2.17 9.86-11.39a1 1 0 0 0 -.75-1.64h-9.11l-3.76 2.17z" fill="#37474f"/><path d="m220.68 46.24a7.42 7.42 0 0 0 -3.35-5.81 7.39 7.39 0 0 0 -6.7 0l-54.23 31.29a7.41 7.41 0 0 0 -3.35 5.8v27.48a7.4 7.4 0 0 0 3.35 5.8 7.46 7.46 0 0 0 6.7 0l54.55-31.51c3-1.72 3-3.44 3-5.58z" fill="#37474f"/><path d="m153.05 105a7.4 7.4 0 0 0 3.35 5.8 7.51 7.51 0 0 0 6.13.28c-1.58.59-2.78-.31-2.78-2.22v-27.47a6.79 6.79 0 0 1 1-3.3l-6.75-3.87a6.93 6.93 0 0 0 -1 3.3z" fill="#263238"/><path d="m220.57 45.28c-.39-1.42-1.68-1.87-3.23-1l-54.24 31.31a6.56 6.56 0 0 0 -2.36 2.5l-6.74-3.86a6.79 6.79 0 0 1 2.36-2.5l54.23-31.29a7.48 7.48 0 0 1 6.71 0 7.36 7.36 0 0 1 3.27 4.84z" fill="#455a64"/><path d="m170.68 87 38.75-22.47c1.12-.65 2-.36 2 .66a4.07 4.07 0 0 1 -2 3l-38.75 22.5c-1.12.64-2 .35-2-.66a4.07 4.07 0 0 1 2-3.03z" fill="#27debf"/><path d="m182.42 88.16 27-15.65c1.12-.65 2-.35 2 .66a4.05 4.05 0 0 1 -2 3l-27 15.65c-1.12.65-2 .36-2-.66a4.07 4.07 0 0 1 2-3z" fill="#27debf"/><path d="m170.68 79.1 38.75-22.48c1.12-.64 2-.35 2 .66a4.07 4.07 0 0 1 -2 3l-38.75 22.48c-1.12.65-2 .36-2-.66a4.07 4.07 0 0 1 2-3z" fill="#27debf"/><path d="m398.09 197.74c5.15-1.15 11 1 14.89 9.26 3.76 7.88 14.64 31.07 14.89 36.63.26 5.77-23.23 23.74-22.57 23.43.2-.1-5.25-11.11-5.25-11.11l11.95-14.85-6.76-13.31z" fill="#27debf"/><path d="m398.09 197.74c5.15-1.15 11 1 14.89 9.26 3.76 7.88 14.64 31.07 14.89 36.63.26 5.77-23.23 23.74-22.57 23.43.2-.1-5.25-11.11-5.25-11.11l11.95-14.85-6.76-13.31z" opacity=".35"/><path d="m407.08 384.73c.68.26 1.07 1.55 1.38 4.7.18 2 .85 4.54-2.13 6.12a7.49 7.49 0 0 1 -7-.07c-2.58-1.6-3.89-4.56-6.91-6.93-2.66-2.08-6-3.62-8.14-7.41s-1.8-6.31 2.6-6.31c7.08 0 9.2 3.9 12.84 4 1.99.02 6.67 5.65 7.36 5.9z" fill="#263238"/><path d="m407.07 383.18v3.18c0 1.55-6.61 3.87-8.46.32-.14-.31-.86-4.67-.86-4.67z" fill="#ffa8a7"/><path d="m376.41 403.25s1.26 0 1.75 5.13c.19 2 .66 6 0 7.42s-4.28 2.09-8.34 2.45c-3 .27-5.76 1.74-8.56 3.32a18.71 18.71 0 0 1 -8.68 2.4c-3.84 0-7.09-.39-9.82-2.55-1.45-1.15-3.3-3.57-1.95-5.4a4 4 0 0 1 2.05-1.08c1.71-.64 3.43-1.22 5.17-1.77a52.34 52.34 0 0 0 7.59-2.91c3.58-1.77 7.57-3.74 10.28-6.76z" fill="#263238"/><path d="m376.39 400.6s0 2.36 0 3.71-1.56 3.36-5.69 3.24c-2.89-.09-4.92-.86-4.82-3.25v-3.43z" fill="#ffa8a7"/><path d="m408.92 341a86.52 86.52 0 0 0 -3.84-16.54s1.06-14.3 1.54-27.86a360.57 360.57 0 0 0 -1.16-41.64s-46.06-4.36-46.82 12.56.34 60 .94 67.42 1.19 14.39 2.77 28.22c1.35 11.91 3.54 37.76 3.54 37.76a11.13 11.13 0 0 0 10.5-.27s3.47-34.71 3.87-43.28c.52-11.12-2.07-17.25-2.07-17.25s1-7 2.69-21.38c1.21-10.15 2.82-21.72 2.82-21.72s1.58 14.32 2.53 22.3c.89 7.4 2.39 13.25 4.61 27.05 1.93 12 7.19 37.3 7.19 37.3 5.41 2.89 9-.44 9-.44s3.4-31.89 1.89-42.23z" fill="#37474f"/><path d="m383.7 297 2.18-14.14s9-2.86 13.52-8.19c0 0-2.43 6.21-10.78 9.55l-3.35 11.91-.57 9.82z"/></g><path d="m352.66 154.86 2.15 15.11 13.6-.47-1.31-17.66z" fill="#ffa8a7"/><path d="m366.38 175s-3.65 5.35-3.25 5.89 3 1.05 3 1.05z" fill="#f28f8f" transform="translate(-23.48 -38.76)"/><path d="m367.57 178.45a4.44 4.44 0 1 1 4.52-4.37 4.45 4.45 0 0 1 -4.52 4.37zm.13-7.89a3.45 3.45 0 1 0 3.4 3.5 3.45 3.45 0 0 0 -3.4-3.5z" fill="#263238" transform="translate(-23.48 -38.76)"/><path d="m376.51 160.16c-7.24 1.41-9.37 4.54-10.23 16-.9 11.95.26 15.73 1.81 17.37 1.05 1.1 6.94 1.39 9.93.62 3.74-1 12.2-3.82 16.24-9.77 4.75-7 6.12-16.59 1.21-20.61-6.89-5.66-16.02-4.18-18.96-3.61z" fill="#ffa8a7" transform="translate(-23.48 -38.76)"/><path d="m376.25 194.44c-3.11.35-7.29 0-8.16-.92a21.42 21.42 0 0 0 7.74-1.52z" fill="#f28f8f" transform="translate(-23.48 -38.76)"/><path d="m363.68 163a4.37 4.37 0 0 0 1 2.87 5.06 5.06 0 0 0 4.91 1.45 3.34 3.34 0 0 0 3.81 4.43c-.35.08.57 2.75.66 3a3.69 3.69 0 0 0 1.9 2.31s1.27-4.61 5.16-4 4.37 5.66 1.85 8.66-4.82 1.8-4.82 1.8 0 6.62 2.89 10.41c0 0 3.32 1.14 9.48-.08 3.78-.74 9.19-5.37 11.51-10.32 4.91-10.49 5.39-20-1.31-22.94-.26-.12-.36-1.42-.44-1.7a7.77 7.77 0 0 0 -.87-2.11 8.82 8.82 0 0 0 -3.74-3.26 19.22 19.22 0 0 0 -7.13-1.52 45.37 45.37 0 0 1 -7.28-.74c-2.15-.5-4.17-1.42-6.27-2.1a12.37 12.37 0 0 0 -6.5-.65 5.88 5.88 0 0 0 -4.58 4.25c-.47 2.43.94 4.45 2.41 6.23a4.27 4.27 0 0 0 -2.68 4z" fill="#263238" transform="translate(-23.48 -38.76)"/><path d="m399.8 163 4.35-2.48a2.5 2.5 0 1 0 -4.35 2.48z" fill="#263238" transform="translate(-23.48 -38.76)"/><path d="m375.93 179.64.21-5a2.51 2.51 0 1 0 -.21 5z" fill="#263238" transform="translate(-23.48 -38.76)"/><path d="m340.15 134.26 13.39 1.95-.56.93-12.84-1.87z" fill="#263238"/><path d="m406.9 206.11c-1.59-6.2-3.83-8.23-9.23-8.37a67.94 67.94 0 0 0 -8.3 1.06c-.57 2.62-7.34 4.4-14.2 3-2 .59-7.43 2.06-9.13 2.67-4.85 1.77-7.2 6.8-7.52 22.8 0 0-.93 37.92 0 44.47 12.23 4.77 24.93 4.56 31.94 3 14.59-3.27 16.32-9.34 16.32-9.34s-.76-15.22-1.26-26.8c.73-7.37 1.83-12.91 2.23-18.79a49.44 49.44 0 0 0 -.85-13.7z" fill="#27debf" transform="translate(-23.48 -38.76)"/><path d="m406.9 206.11c-1.59-6.2-3.83-8.23-9.23-8.37a67.94 67.94 0 0 0 -8.3 1.06c-.57 2.62-7.34 4.4-14.2 3-2 .59-7.43 2.06-9.13 2.67-4.85 1.77-7.2 6.8-7.52 22.8 0 0-.93 37.92 0 44.47 12.23 4.77 24.93 4.56 31.94 3 14.59-3.27 16.32-9.34 16.32-9.34s-.76-15.22-1.26-26.8c.73-7.37 1.83-12.91 2.23-18.79a49.44 49.44 0 0 0 -.85-13.7z" opacity=".2" transform="translate(-23.48 -38.76)"/><path d="m390.9 194.87.1 1.46s-.71 2-4.84 2.82c-6.93 1.29-9.36-.87-9.36-.87l-.17-1.25s-.67-.27-1.8.6a60.55 60.55 0 0 0 -4.79 5.62s1.32-.39 5.65 1.45a20.6 20.6 0 0 0 13.53.51 7.45 7.45 0 0 0 4.95-5.54c.17-1.27-2.08-5.32-3.27-4.8z" fill="#27debf" transform="translate(-23.48 -38.76)"/><path d="m390.9 194.87.1 1.46s-.71 2-4.84 2.82c-6.93 1.29-9.36-.87-9.36-.87l-.17-1.25s-.67-.27-1.8.6a60.55 60.55 0 0 0 -4.79 5.62s1.32-.39 5.65 1.45a20.6 20.6 0 0 0 13.53.51 7.45 7.45 0 0 0 4.95-5.54c.17-1.27-2.08-5.32-3.27-4.8z" opacity=".35" transform="translate(-23.48 -38.76)"/><path d="m364.51 205.08c-5.79 1.12-10.87 3.76-10.77 10.62a77.22 77.22 0 0 1 -4.31 25.74c-1.8 5.69-16.63 22.71-20.29 23.77s-8.91-1.23-10.18.61 3.77 4.09 4 5-6.19 3.43-10.08 2.76-2.94 4.09 2.92 6.71 13.11-.39 20.06-5.59 20.86-16.3 24.45-24c4.35-9.28 6.78-18 7.31-24.7.92-13.73-3.11-20.92-3.11-20.92z" fill="#ffa8a7" transform="translate(-23.48 -38.76)"/><path d="m365.2 204.73s-6 0-9.58 3.57c-3.06 3-3.46 7.92-4.31 17.56a77.59 77.59 0 0 1 -2.76 15c-.72 2.45-10.89 16.57-10.89 16.57s4.14 6.16 8.29 9.45c0 0 9.33-7.69 14.08-14.14s7.97-24.74 7.97-24.74 2.43-14-2.8-23.27z" fill="#27debf" transform="translate(-23.48 -38.76)"/><path d="m365.2 204.73s-6 0-9.58 3.57c-3.06 3-3.46 7.92-4.31 17.56a77.59 77.59 0 0 1 -2.76 15c-.72 2.45-10.89 16.57-10.89 16.57s4.14 6.16 8.29 9.45c0 0 9.33-7.69 14.08-14.14s7.97-24.74 7.97-24.74 2.43-14-2.8-23.27z" opacity=".35" transform="translate(-23.48 -38.76)"/><path d="m338.14 256.79a27.39 27.39 0 0 0 8.56 9.49s-3.3 2.8-5.08 3.92c0 0-4.91-1.75-7.89-8.49z" fill="#27debf" transform="translate(-23.48 -38.76)"/><path d="m338.14 256.79a27.39 27.39 0 0 0 8.56 9.49s-3.3 2.8-5.08 3.92c0 0-4.91-1.75-7.89-8.49z" opacity=".5" transform="translate(-23.48 -38.76)"/><path d="m336.35 261.35a.74.74 0 0 0 1.33-.63.74.74 0 1 0 -1.33.63z" fill="#263238" transform="translate(-23.48 -38.76)"/><path d="m238.94 78.87h15.31a22.33 22.33 0 0 0 22.33-22.33 17.78 17.78 0 0 0 -17.78-17.78h-2.08a17.78 17.78 0 0 0 -17.78 17.78z" fill="#263238" transform="translate(-23.48 -38.76)"/><path d="m237.18 91.14c-3.77 7.18-7.34 15.94-10.13 18.84-5.3 2.47-17.4 7.07-22.26 7.71a3.64 3.64 0 0 1 -2.45-.58c-1.91-1.25-3.39-1.46-5.41-2.15-1.58-.55-2.25-1.31-2.54-1a1.78 1.78 0 0 0 .16 2.5 13 13 0 0 0 2.5 1.88 14.92 14.92 0 0 1 -6.59.11c-4.21-1.11-6.2.92-3.35 5.49 1 1.64 5 4.26 13.18 3.56a72.44 72.44 0 0 0 8.65-1c7.81-1.66 16.15-4.1 21.49-5.69a13.9 13.9 0 0 0 5.18-3.6c9-10.23 13.39-19.3 17.32-25.93l-2.86-9.89c-6.36-.24-9.65 3.61-12.89 9.75z" fill="#b16668" transform="translate(-23.48 -38.76)"/><path d="m250.07 81.34c-4.9-.36-6.76.56-9 2.75-5.35 5.26-13.51 25.28-13.64 25.44s-6.06 2.86-6.06 2.86 3.16 5.29 2.43 10.3c0 0 5.79-1.28 7.86-2.07s2.81-1.34 4.76-3.6 12.85-15.18 12.85-15.18z" fill="#263238" transform="translate(-23.48 -38.76)"/><path d="m239.55 103.73a42.07 42.07 0 0 1 .84 10.66c-.32 4.7-3.66 13.31-3.66 13.31s2.63 2.39 9.79 1.27c5.83-.91 3.77-18.49.42-21.9a11 11 0 0 0 -7.39-3.34z" fill="#37474f" transform="translate(-23.48 -38.76)"/><path d="m279.9 253.71a42.9 42.9 0 0 1 .66 7c.09 4.27.87 5.78 1 9.28.12 4-.57 5.5-2.19 7.75s-5.89 4.29-7.69.48-1.57-6.29-1-10.21.67-6.3 1-9.39c.3-2.73.66-4.8.66-4.8z" fill="#263238" transform="translate(-23.48 -38.76)"/><path d="m267.79 220.17 14-.25c-.21 9.38-1.7 25-1.94 33.79 0 1.66 0 12.88-.59 16.29-.94 5.12-7 4.43-7.34 1.36s.39-16.16.37-17.51c.06-5.64-2.59-20.37-4-30.51.01-.49-.44-2.68-.5-3.17z" fill="#b16668" transform="translate(-23.48 -38.76)"/><path d="m247.13 246.41s.73.05.85.64.16 1.81.46 3a17.11 17.11 0 0 1 .5 5.56c-.25 1.31-3.24 3.27-5.28 3.61s-4.93 2.36-6.54 3.87a15.64 15.64 0 0 1 -9.08 3.57c-3.41 0-5.79-1.13-6.92-3s1-2.05 4.93-4.58l3-2c6.18-4 8.44-6.2 10.19-10.24z" fill="#263238" transform="translate(-23.48 -38.76)"/><path d="m239.22 244.22c.1-2.91-1.38-24.3-1.38-24.3l12.08 1.36c-2.85 17.05-3.09 22.87-2.76 25.35a2.52 2.52 0 0 1 .08.71c0 3.32-3.76 5.1-6.67 7.31-1.16.87-4.12 3.56-7.59 4.75-2.24.76-6.4 1.05-6.93-.31 3.55-2.71 8.38-6.26 11.21-9.35 1.34-1.48 1.86-2.62 1.96-5.52z" fill="#b16668" transform="translate(-23.48 -38.76)"/><path d="m271.78 118.92a51.29 51.29 0 0 1 8.84 18.22c4 16.11-2.28 50.58-2.28 50.58.2 2.33 2.87 6.93 3.87 17.22 1.17 12.15-2.17 44.69-2.17 44.69s-3.22 2.4-7.87.16c0 0-8.51-47.8-10-59.88-1.33-10.55-4-32.46-4-32.46l-6.17 32.4s.85 5.91 1.28 10.41c.69 7.1-6.23 42.78-6.23 42.78a9.76 9.76 0 0 1 -7.84-.16s-3.06-46.08-3.71-54.64c-.66-8.81 1.63-29.35 3.32-45.7.51-4.93 2.85-18 3.72-22.26z" fill="#455a64" transform="translate(-23.48 -38.76)"/><path d="m258.1 157.45-1.45-10a24.78 24.78 0 0 1 -11.75-3.79 15 15 0 0 0 9.84 5.5l.91 8.92-2.9 27.83z" fill="#263238" opacity=".6" transform="translate(-23.48 -38.76)"/><path d="m242 108.28c.15 2.93.57 12 .57 12 12 8.1 29.23-1.36 29.23-1.36l2.49-17s-6.25-8.74-.39-18l-9.35-1.85-11.15-.92-3.31.15c-3.66 2.69-9.27 8.57-10.45 11.58s-2.98 9.12 2.36 15.4z" fill="#27debf" transform="translate(-23.48 -38.76)"/><path d="m242 108.28c.15 2.93.57 12 .57 12 12 8.1 29.23-1.36 29.23-1.36l2.49-17s-6.25-8.74-.39-18l-9.35-1.85-11.15-.92-3.31.15c-3.66 2.69-9.27 8.57-10.45 11.58s-2.98 9.12 2.36 15.4z" fill="#fff" opacity=".6" transform="translate(-23.48 -38.76)"/><path d="m265.14 82.23s10.59.47 12.6 1.43 5.36 6.74 2.36 15.16-5.71 18.29-5.4 20.28 7.45 12.26 7.45 12.26a19.47 19.47 0 0 1 -6.58 3.16l-3.66-8 .86 8.51s-6.6 1.6-11.31 1.19c0-.01-3.8-32.22 3.68-53.99z" fill="#37474f" transform="translate(-23.48 -38.76)"/><path d="m271.32 38.76-1.22 4.66a2.34 2.34 0 0 0 3-1.63 2.54 2.54 0 0 0 -1.78-3.03z" fill="#263238" transform="translate(-23.48 -38.76)"/><path d="m275.32 43-4.81.17a2.33 2.33 0 0 0 2.41 2.37 2.53 2.53 0 0 0 2.4-2.54z" fill="#263238" transform="translate(-23.48 -38.76)"/><path d="m245.92 47.21c-2 1.17-4.44 6.17-4.2 16.65.21 8.88 3.08 11.08 4.53 11.71s4.23.25 6.94-.21v5.33s-3.74 4.35-3.51 6.8 5.41 3 8.92.63a22.64 22.64 0 0 0 5.75-6v-13.83s1.48 1.57 4.11-.23a4.85 4.85 0 0 0 1.24-7 3.58 3.58 0 0 0 -5.44.65s-3.64-.32-9.4-3.48a18.57 18.57 0 0 1 -8.94-11.02z" fill="#b16668" transform="translate(-23.48 -38.76)"/><path d="m252.63 61.63a1.12 1.12 0 1 0 1.17-1.11 1.14 1.14 0 0 0 -1.17 1.11z" fill="#263238" transform="translate(-23.48 -38.76)"/><path d="m251.34 69.16-2.6.82a1.35 1.35 0 0 0 1.69.94 1.43 1.43 0 0 0 .91-1.76z" fill="#9a4a4d" transform="translate(-23.48 -38.76)"/><path d="m242.73 58.2 2.27-1.57a1.33 1.33 0 0 0 -1.88-.38 1.45 1.45 0 0 0 -.39 1.95z" fill="#263238" transform="translate(-23.48 -38.76)"/><path d="m243.25 60.82a1.12 1.12 0 1 0 1.17-1.1 1.14 1.14 0 0 0 -1.17 1.1z" fill="#263238" transform="translate(-23.48 -38.76)"/><path d="m225.97 21.42-.18 6.73-3.54-1.1z" fill="#9a4a4d"/><path d="m253.19 75.36c2.86-.37 8.74-2.06 9.65-4.38a6 6 0 0 1 -2.06 3c-1.75 1.51-7.59 3.2-7.59 3.2z" fill="#9a4a4d" transform="translate(-23.48 -38.76)"/><path d="m297 120.61c-1.85-7.21-9.69-23-11.92-28.78-2.54-6.62-6.92-9-11.65-9-1.74 2.24-2.47 13.51 2.89 20 2.28 4.81 9.12 18.25 9.12 18.25-.17 1.3-4.95 18-7 22.44a3.47 3.47 0 0 1 -1.8 1.72c-2.11.92-4.59 3.23-6.27 4.54-1.32 1-2.33 1.17-2.24 1.58a1.91 1.91 0 0 0 2.28 1.21 31 31 0 0 0 4.18-1.69 50.8 50.8 0 0 1 -4.18 5.72c-2.84 3.28-2.74 6.08 2.79 6.17 4.18.06 6.39-2.29 10.1-9.46 1.06-2.06 2.24-5.17 3.52-7.82 3.23-6.71 5.27-9.5 7-13.79 2.84-6.83 3.9-8.31 3.18-11.09z" fill="#b16668" transform="translate(-23.48 -38.76)"/><path d="m271.32 82.64c5.24 0 9.11.42 12.13 4.85s12.36 27.74 13.4 30.76 1.72 5.49-2.63 12.56a22.77 22.77 0 0 1 -10.41-3.67l1.05-6.06-9.15-17.73a31.93 31.93 0 0 1 -4.39-20.71z" fill="#263238" transform="translate(-23.48 -38.76)"/><path d="m110.1 172.77c6 2 7.41 2.41 11.53 8.82 4 6.15 8 17.53 11.57 26.65 6.55-1.86 20.44-5.09 25-7.75s4.13-4.51 6-6.22c2.16-2 4.42-6.73 6.18-4.12 1.18 1.76-1.27 2.94-1.12 5.17s6.89-3 9.72-5c1.87-1.31 6.21 2.8 4.47 7.25-1.54 4-4 6.45-8.44 8.32-4.67 2-7.11 3-13 5.6-6.13 2.76-31.4 13.94-33.9 12.38-5.69-2.81-10.9-20.42-14.35-28s-1.16-15.5-3.66-23.1z" fill="#ffa8a7" transform="translate(-23.48 -38.76)"/><path d="m108.67 172c2.55 3.35 1.5 2 2.28 7.18.64 4.17 9.41 44.36 17.36 46 3.48.73 28.63-10.78 34.73-14.14a29.26 29.26 0 0 1 -4.82-10.62c-7.31 2.85-19.91 5.67-24.43 7.08-2.1-5.84-4.66-11.84-7.06-17.73-4.57-11.15-7.16-19.13-18.06-17.77z" fill="#37474f" transform="translate(-23.48 -38.76)"/><path d="m74.55 354.15h9.8v16.77h-9.8z" fill="#ffa8a7" transform="matrix(-1 0 0 -1 135.43 686.31)"/><path d="m87.49 321.73 10.69.37.53-19.38-12.11-.4z" fill="#ffa8a7"/><path d="m75.76 240c0 8.92-.62 60.77-.62 60.77-.21 2.57-2.68 7.13-2.88 16.37-.27 13.41 1.79 45 1.79 45a12.27 12.27 0 0 0 10.4.2s7.33-44.66 9-57.92c1.46-11.58 5.64-41.88 5.64-41.88l6.3 39.36a66.08 66.08 0 0 0 -.52 14.24c.44 6.13 5.08 36.64 5.08 36.64a20.51 20.51 0 0 0 12.47.11s1-47.53 1.08-53.16c.12-6.42-2.68-61.64-2.68-61.64z" fill="#263238" transform="translate(-23.48 -38.76)"/><path d="m84.35 366.08v-1.4c.53 0 .85.51 1.05 1.77.15.91.28 1.59.58 2.78a32.38 32.38 0 0 0 1.71 5c1.38 3.41 2.55 4.69 5.72 8.67a38.59 38.59 0 0 1 3 3.51c.59 1.05.8 4-.21 4.66-3.69 2.46-9.31 2.53-13.29 1.37a8 8 0 0 1 -5.73-6.44c-.14-.91-.09-1.83-.19-2.74a13.07 13.07 0 0 0 -2.45-5.69 17 17 0 0 1 -1.89-3.1c-.82-2-.16-4.28.37-6.28.45-1.74.94-3.64 1.53-3.48v1.07a7.73 7.73 0 0 0 4.9 1.65c1.44.03 4.91-.25 4.9-1.35z" fill="#263238" transform="translate(-23.48 -38.76)"/><path d="m121.77 357.56c.56 0 1 .8 2.23 2.13a23.47 23.47 0 0 0 6.3 4.52c4 2 11.79 5.09 15.32 6.68 2.2 1 2.09 3.65-.18 5.17s-7.77 2.6-14.37 1.13c-3.6-.81-8.27-4.13-11.24-3.95s-8.5.14-10.69-1.37-1.31-4.73-.69-7.49c.67-3 1.35-7.73 2.35-7.52v1.13c1.29 1.94 8 2.65 10.87 1.22z" fill="#263238" transform="translate(-23.48 -38.76)"/><path d="m99.09 262.54s8.33-2.72 13.87-8.07c0 0-2.51 4.7-10 9.07l1.82 34.46z" transform="translate(-23.48 -38.76)"/><path d="m91.86 171.88c-2 .47-6.77 1.06-10.28 2.07-2.58.74-3.67 3.89-4.21 6.27-1.73 7.6-2 23.55-2 23.55l-.1 37.14c6.44 4.68 32.87 7.06 46.4-2.82 0 0-1.65-44.24-1.65-51.12s-3.83-15.16-14.39-15.77z" fill="#455a64" transform="translate(-23.48 -38.76)"/><path d="m63.64 224.1s8.2 12.45 9.61 14.07 2.37 1.09 3.89.37a41.9 41.9 0 0 1 5.69-2c2.51-.67 3 1.81.57 3.57-1.8 1.27-3.85 1.83-3 2.88a19.1 19.1 0 0 0 6 3.92c6 2.55 6.26 4.1 5.14 6.2-1 1.82-4.57 6.8-15.39 2.16-4.46-1.92-10.65-8.69-13.61-12.2-4.28-5.07-10.14-14.93-10.14-14.93z" fill="#ffa8a7" transform="translate(-23.48 -38.76)"/><path d="m81.58 174c-9.86-.85-12.4 4.22-19.4 16.64-6.18 10.84-14.18 24.36-14.44 30-.07 1.82 7.84 14.46 13.5 20.88 4.9-.23 8.45-2.12 10.77-5-1.35-2.25-8.63-15.43-8.63-15.43l13-20.06a26.45 26.45 0 0 0 5.3-10.6c1.68-7.43 1.02-14.77-.1-16.43z" fill="#37474f" transform="translate(-23.48 -38.76)"/><path d="m94.12 142.25a12.4 12.4 0 1 0 12.4-12.39 12.4 12.4 0 0 0 -12.4 12.39z" fill="#263238" transform="translate(-23.48 -38.76)"/><path d="m85.09 151.06s2 9.44 2.81 11a4.28 4.28 0 0 0 2.47 2l-.14-6.64z" fill="#263238" transform="translate(-23.48 -38.76)"/><path d="m87.49 136.18a5.09 5.09 0 0 0 -3.68 1.6c-1.65 1.69-.78 8.1 1.28 13.28l3.78.44z" fill="#263238" transform="translate(-23.48 -38.76)"/><path d="m90 151.5c-.76.46-1.84-1-2.78-2s-4-2.32-5.51.89 1.34 7.6 3.75 8.35c4.14 1.3 4.76-1.36 4.76-1.36l.31 15.41c2.86 3.67 9.3 8 12.77 7.37 2.76-.49 3.37-5.16.72-8.22v-4.55a25.81 25.81 0 0 0 5.59.28c3-.47 5-2.87 5.89-6.17 1.48-5.3 2-9.58.78-20-1.38-11.42-14.66-11.54-21.83-7s-4.45 17-4.45 17z" fill="#ffa8a7" transform="translate(-23.48 -38.76)"/><path d="m117.62 136.88a6.38 6.38 0 0 1 -2.56 2.49 14.9 14.9 0 0 1 -8.76 1.74c-3.15-.35-6-1.87-8.82-3.28a6.33 6.33 0 0 1 -1.43 3.17 9.49 9.49 0 0 1 -3.4 2.23c-.26 2.05-.25 4.69-.38 6.76 0 .7 0 4.33-1.69 3.29a8.2 8.2 0 0 1 -1.44-1.62 25.42 25.42 0 0 0 -1.91-2.11c-.49-.45-.46-1.48-.48-2.07a28.69 28.69 0 0 1 .12-3.71c.11-1.28.32-2.55.43-3.82a5.77 5.77 0 0 0 -.51-2.12 7.6 7.6 0 0 1 -.32-2.42c.14-2.56 2.1-4.73 4.4-5.86a20.59 20.59 0 0 1 10.61-1.55c3.14.26 6.38.62 9.37-.36 1.15-.38 2.24-1 3.41-1.28a4.61 4.61 0 0 1 3.54.22c2.26 1.31 2.4 5.34.17 6.71-.15.09-.33.19-.38.36a.79.79 0 0 0 .12.57 3 3 0 0 1 -.09 2.66z" fill="#263238" transform="translate(-23.48 -38.76)"/><path d="m86.74 137.51-4.59-2.46a2.54 2.54 0 0 1 3.48-1.15 2.74 2.74 0 0 1 1.11 3.61z" fill="#263238" transform="translate(-23.48 -38.76)"/><path d="m104 167.41s-6.8-1.37-9.18-2.64a7.85 7.85 0 0 1 -3.29-3.25 10.8 10.8 0 0 0 1.87 3.84c1.74 2.22 10.6 3.86 10.6 3.86z" fill="#f28f8f" transform="translate(-23.48 -38.76)"/><path d="m103.33 149.09a1.46 1.46 0 1 1 -1.46-1.52 1.48 1.48 0 0 1 1.46 1.52z" fill="#263238" transform="translate(-23.48 -38.76)"/><path d="m101.87 144.14-3 1.67a1.81 1.81 0 0 1 .7-2.4 1.69 1.69 0 0 1 2.3.73z" fill="#263238" transform="translate(-23.48 -38.76)"/><path d="m103.45 159 3.37 1.26a1.77 1.77 0 0 1 -2.29 1.12 1.88 1.88 0 0 1 -1.08-2.38z" fill="#f28f8f" transform="translate(-23.48 -38.76)"/><path d="m115.37 145.36-2.75-2.12a1.67 1.67 0 0 1 2.39-.37 1.82 1.82 0 0 1 .36 2.49z" fill="#263238" transform="translate(-23.48 -38.76)"/><path d="m114.75 148.81a1.41 1.41 0 1 1 -1.41-1.47 1.44 1.44 0 0 1 1.41 1.47z" fill="#263238" transform="translate(-23.48 -38.76)"/><path d="m83.72 108.89.48 8.89 4.64-1.58z" fill="#f28f8f"/><path d="m108.87 179.21c-.87 2-2.47 2.89-5.36 3.22a10.75 10.75 0 0 1 -8-2.79l3.6-3.59 4.57 3.45.39-3.84z" fill="#27debf" transform="translate(-23.48 -38.76)"/><path d="m108.87 179.21c-.87 2-2.47 2.89-5.36 3.22a10.75 10.75 0 0 1 -8-2.79l3.6-3.59 4.57 3.45.39-3.84z" opacity=".2" transform="translate(-23.48 -38.76)"/><path d="m106.6 178.08a9.62 9.62 0 0 1 .47 3.86 6.56 6.56 0 0 1 -1.28 3.21 3.55 3.55 0 0 1 -3.11.34 8.49 8.49 0 0 1 -3-6.45l4 .46z" fill="#27debf" transform="translate(-23.48 -38.76)"/><path d="m105.79 185.15s4.69 25.87 4.88 28-2.7 9.5-4.48 9.57-5.3-6.65-5.35-8.55 1.84-28.64 1.84-28.64z" fill="#27debf" transform="translate(-23.48 -38.76)"/><path d="m102.68 185.49a3.12 3.12 0 0 0 3.11-.34l.07.41a3.56 3.56 0 0 1 -3.24.64z" fill="#37474f" transform="translate(-23.48 -38.76)"/><path d="m103.67 179.5-13.2-10.07v-2.63s-3.09.82-3.78 6.23a23.31 23.31 0 0 0 10.3 11l2.77-5z" fill="#37474f" transform="translate(-23.48 -38.76)"/><path d="m104 168.06a11.76 11.76 0 0 1 4.43 3.63c1.32 2.18 1.31 9.26 1.31 9.26l-3.16-2.87-2.93 1.42c.28-2.78.36-7.54.36-7.54z" fill="#37474f" transform="translate(-23.48 -38.76)"/></svg>