<svg viewBox="0 0 2895.9 2936.09" xmlns="http://www.w3.org/2000/svg" xmlns:xlink="http://www.w3.org/1999/xlink"><linearGradient id="a" gradientUnits="userSpaceOnUse" x1="1370.5" x2="1092.47" y1="2107.92" y2="2898.11"><stop offset="0" stop-color="#aa80f9"/><stop offset="1" stop-color="#6165d7"/></linearGradient><linearGradient id="b" gradientUnits="userSpaceOnUse" x1="1095.13" x2="1413.68" y1="2359.19" y2="4395.62"><stop offset="0" stop-color="#e38ddd"/><stop offset="1" stop-color="#9571f6"/></linearGradient><clipPath id="c" transform="translate(-374.81 -455)"><path d="m1913.94 3179.19q88.26-98.78 172.58-202.14c1.87.11-92.28-169.23-222-191-254-39.93-268.07-254.22-304.59-357.69-46.87-149.61-164.3-256-278-164.14-128.09 99.34-315.69-96.76-443.22-311.12-55.75-109.92-230.88-153.61-337.3-108.2-110.42 44.06-152.13 177.22-33.1 389.72 128.24 254 384.2 258.22 526 321 139.29 61.48 76 258.06 254.76 266.34 153.88 11.52 312.36-20.14 353.84 121 39.37 140.75 115.87 218.97 311.03 236.23z"/></clipPath><linearGradient id="d" gradientUnits="userSpaceOnUse" x1="3907.9" x2="58.55" y1="2648.79" y2="1567.4"><stop offset="0" stop-color="#311944"/><stop offset="1" stop-color="#893976"/></linearGradient><linearGradient id="e" gradientUnits="userSpaceOnUse" x1="1635.93" x2="3.28" y1="1035.58" y2="3488.38"><stop offset="0" stop-color="#ffc444"/><stop offset="1" stop-color="#f36f56"/></linearGradient><linearGradient id="f" x1="1714.31" x2="1223.82" xlink:href="#e" y1="961.01" y2="1646.93"/><linearGradient id="g" x1="788.23" x2="1527.4" xlink:href="#e" y1="176.66" y2="2154.21"/><linearGradient id="h" gradientUnits="userSpaceOnUse" x1="342.93" x2="1814.83" y1="4073.73" y2="106.6"><stop offset="0" stop-color="#ebeff2"/><stop offset="1" stop-color="#fff"/></linearGradient><linearGradient id="i" x1="2201.95" x2="1326.39" xlink:href="#e" y1="1406.56" y2="3167.62"/><linearGradient id="j" gradientUnits="userSpaceOnUse" x1="865.03" x2="1805.43" y1="781" y2="2534.09"><stop offset="0" stop-color="#ff9085"/><stop offset="1" stop-color="#fb6fbb"/></linearGradient><linearGradient id="k" x1="1323.15" x2="2263.55" xlink:href="#j" y1="1191.31" y2="2944.4"/><linearGradient id="l" x1="343.66" x2="2491.78" xlink:href="#j" y1="1.45" y2="4005.96"/><clipPath id="m" transform="translate(-374.81 -455)"><path d="m356.81 2117.12h1630.9v1053.76h-1630.9z"/></clipPath><clipPath id="n" transform="translate(-374.81 -455)"><path d="m1935 3170c11.46-13.06 24.89-51.57 24.25-63-4.25-76.4-2.93-220-59.86-277.45-9.72-9.81-64.45 21.3-79.29 17.51-39.71 11.37-52.78 17.78-95.84 10-127.12-22.83-115.08-286.42-319.18-195.69-149.51 66.46-213 194-360.5.94s-583.65-397.56-664-101.54c-46.14 169.88 202 226.07 245.7 390.13 41.55 155.89 166.1 204.7 338.59 168.37s155 67.88 212.23 200.4c68.75 159.19 278.48 13.5 369.57-62 73.33-60.9 301.09-166.27 388.33-87.67z"/></clipPath><linearGradient id="o" x1="3185.85" x2="2780.87" xlink:href="#d" y1="3252.92" y2="1882.67"/><linearGradient id="p" x1="2848.52" x2="2795.34" xlink:href="#d" y1="2890.52" y2="2467.41"/><linearGradient id="q" x1="3029.77" x2="2879.28" xlink:href="#j" y1="2120.65" y2="4892.23"/><linearGradient id="r" x1="2760.76" x2="2355.96" xlink:href="#d" y1="3417.74" y2="2048.12"/><linearGradient id="s" x1="2644.74" x2="2494.39" xlink:href="#j" y1="2098.93" y2="4867.91"/><linearGradient id="t" x1="2295.88" x2="1888.01" xlink:href="#d" y1="3597.14" y2="2217.13"/><linearGradient id="u" x1="2192.24" x2="2041.98" xlink:href="#j" y1="2073.18" y2="4840.44"/><linearGradient id="v" x1="1765.55" x2="1360.74" xlink:href="#d" y1="3788.24" y2="2418.56"/><linearGradient id="w" x1="1693.8" x2="1543.76" xlink:href="#j" y1="2045.91" y2="4809.12"/><linearGradient id="x" x1="1291.53" x2="789.99" xlink:href="#d" y1="4224.96" y2="2528.01"/><linearGradient id="y" x1="1136.79" x2="987" xlink:href="#j" y1="2015.82" y2="4774.45"/><path d="m1642.89 455.24c-383.32 6.42-976.39 144.56-1147.1 499.55-59.62 124-55.58 306.25-47.51 670.79 2.37 107.15 6.31 263.32 33.94 457.1 57.4 402.52 96.47 676.55 244.35 836.11 370.55 399.81 1709 388.26 2280.62-331.53 311.8-392.65 359.76-951.21 74.66-1412.83-313.85-508.24-925.78-727.78-1438.96-719.19z" fill="#f4f7fa" transform="translate(-374.81 -455)"/><path d="m1913.94 3179.19q88.26-98.78 172.58-202.14c1.87.11-92.28-169.23-222-191-254-39.93-268.07-254.22-304.59-357.69-46.87-149.61-164.3-256-278-164.14-128.09 99.34-315.69-96.76-443.22-311.12-55.75-109.92-230.88-153.61-337.3-108.2-110.42 44.06-152.13 177.22-33.1 389.72 128.24 254 384.2 258.22 526 321 139.29 61.48 76 258.06 254.76 266.34 153.88 11.52 312.36-20.14 353.84 121 39.37 140.75 115.87 218.97 311.03 236.23z" fill="url(#a)" transform="translate(-374.81 -455)"/><g clip-path="url(#c)" fill="#beb8f2"><path d="m2013.34 3110.93c-1-1.36-308.82-266.19-656.42-484-53.6-37.43-108.88-74.2-162.34-109.77-297.72-198-578.93-385.13-708-746.38l-4.82 1.87c129.64 362.94 411.55 550.48 710 749 53.44 35.55 108.69 72.31 162.36 109.77 349.47 219 653.54 481.16 655.24 483z" transform="translate(-374.81 -455)"/><path d="m920.14 2332.39.83-5.28c-140.41-24.11-324.03-71.61-422.67-97.11-79.84-20.66-80-20.5-81.78-18.45l1.89 1.81.46 2.58c3.4-.09 36.4 8.45 78.19 19.26 98.71 25.52 282.46 73.08 423.08 97.19z" transform="translate(-374.81 -455)"/><path d="m807.87 2231.75c-60.08-111-71-207.92-69.62-269.73 1.53-67.32 17.89-111.34 21.12-115.19l-1.51-1.36-.27-3.36c-1.54.13-2.45 1.38-3.6 3.65-16.44 32.45-56.25 193.51 49.4 388.63z" transform="translate(-374.81 -455)"/><path d="m1574 2778.37 3.61-3.82c-173.23-177.72-186-467.75-183.39-584.2.14-6.26.18-8.28 0-9.21l-5.08.8 2.54-.4-2.54.38c.07.67 0 4.21-.1 8.31-1.85 84 4.67 165.19 19.37 241.39 28.27 146.38 83.96 263.04 165.59 346.75z" transform="translate(-374.81 -455)"/><path d="m1114.41 2770.78-1.72-2 .87 2.5-3-.91v-3.21c2.49-2.6 178-133.12 361.11-65.27l-1.72 5c-181.16-67.1-353.95 62.51-355.54 63.89zm-1.73-2-.88-2.51z" transform="translate(-374.81 -455)"/><path d="m1962.33 3068.26c-32-38.68-70.49-118.07-72.13-276.57-.09-9-.09-9-1.07-10l-3.51 3.91 1.76-2-2.48.65c.09.62.12 3.77.16 7.4 1.65 160.13 40.81 240.66 73.37 280z" transform="translate(-374.81 -455)"/><path d="m1883.85 3010.74 3-4.39c-74.36-54.61-209.46-27.21-283.38-6-2.34.67-3.85 1.11-4.42 1.23l1 5.25c.6-.13 2.23-.59 4.75-1.31 73.04-20.96 206.42-48.13 279.05 5.22z" transform="translate(-374.81 -455)"/></g><path d="m2852.72 1770.66 12.51-27.56c4.69-10.33 1.9-22.73-6.23-27.73l-32.39-19.9a357.1 357.1 0 0 0 18-78.34l36.15-2.54c9.32-.65 16.85-10.39 16.85-21.76v-30.22c0-11.37-7.53-20.15-16.85-19.62l-35.2 2a332.21 332.21 0 0 0 -16.34-77.94l29.78-22.05a18.61 18.61 0 0 0 2.62-2.4l3.81 9.91 48.9-60.14-63.84-5.44a15.79 15.79 0 0 0 -10.56-6.29 15 15 0 0 0 -10.63 2.94l-29.41 21.37a269.65 269.65 0 0 0 -48.54-58.16l2.22-4.63 44.95 9.18 5.7-74.41-68.22-11.29c-7.85-3-16.73.81-21 9.71l-17 35c-21.8-10.84-3.73-22.26-28.51-25.56l25.91-38.16c0-11.9-75.91-19.82-86.16-19.82h-27.45c-10.39 0-18.84 9.77-18.84 21.83v40.86a243.5 243.5 0 0 0 -73.61 23.9l46.89-34.45s-82.59-15.65-92-9.44l-25.13 16.61c-9.51 6.28-12.77 20-7.27 30.66l19 36.78c-20.81 18.53-29.66 29.22-45.41 53.68l-44.16-10c-9.75-6-22.27-1.93-27.94 9.12l-15.12 29.46c-5.71 11.12-2.32 25 7.55 30.88l35.6 21.34a356.91 356.91 0 0 0 -19.44 86.88l-42.71 2.44c-11.5.66-20.85 11.47-20.85 24.16v33.73c0 11.5 7.69 20.46 17.7 21.43l48.53 7.78a323.18 323.18 0 0 0 19.86 71.45l-38.69 28.13c-9.87 7.17-13.26 21.44-7.55 31.83l15.12 27.54c5.67 10.32 95.63 16.6 95.63 16.6l-28.58-40.01a259.3 259.3 0 0 0 54 54l-22.54 46.5c-5.5 11.34-2.24 24.67 7.27 29.74l25.13 13.4a16.22 16.22 0 0 0 4.94 1.67l-.1.47 78.4 9.66 7.67-59.17a221.93 221.93 0 0 0 27.79 2.51v50.62c0 9 4.71 16.13 11.42 18.61l-.35 1.48 77.68 9.7 1.55-96a256.66 256.66 0 0 0 41-20l20.71 40.07a15.62 15.62 0 0 0 11.38 8.67l75.07 10.18-25.71-70.76-10.37 3.19-17.11-33.55a320 320 0 0 0 47.61-60.58l33.51 20.08c8.2 5.01 18.68.56 23.4-9.83zm-257.23-25.93c-73.49 6.55-134.49-57.94-134.49-144.18s61-158.39 134.45-161.08c71.72-2.62 128.55 62.13 128.55 144.53s-56.83 154.35-128.51 160.73zm313.89-165.6 50.85-24.07-50.85-6.17zm-62.38 205.45 58.17 7.85 8.49-19.84-48.19-29.3z" fill="#bfc8d6" transform="translate(-374.81 -455)"/><path d="m2955.74 1554.17-35 2a331.14 331.14 0 0 0 -16.25-77.71l29.61-22c8.08-6 10.85-18.74 6.19-28.45l-12.44-25.88c-4.69-9.76-15.11-12.87-23.29-6.9l-29.24 21.32a268.32 268.32 0 0 0 -48.26-58l16.83-35.24c4.82-10.12 2-22.92-6.42-28.63l-22.39-15.27c-8.47-5.77-19.33-2.23-24.25 7.95l-16.87 34.9a221.74 221.74 0 0 0 -69.82-21.45v-40.3c0-11.88-8.24-21.52-18.43-21.51h-27.3c-10.33 0-18.73 9.75-18.73 21.78v40.74a241.79 241.79 0 0 0 -73.18 23.86l-18.23-35.85c-5.36-10.53-17.26-14.08-26.6-7.89l-25 16.57c-9.45 6.27-12.69 20-7.23 30.58l18.9 36.67a314.45 314.45 0 0 0 -54.85 64.67l-34.19-21.05c-9.7-6-22.15-1.91-27.78 9.1l-15 29.39c-5.68 11.09-2.31 24.88 7.5 30.78l35.4 21.26a357.42 357.42 0 0 0 -19.33 86.64l-42.46 2.45c-11.43.66-20.73 11.45-20.73 24.1v33.63c0 12.65 9.3 22.24 20.73 21.43l43.59-3.08a325.39 325.39 0 0 0 21.27 82l-38.49 28.07c-9.81 7.15-13.18 21.38-7.5 31.74l15 27.46c5.63 10.28 18.08 12.74 27.78 5.53l38.9-28.95a258 258 0 0 0 53.66 53.85l-22.42 46.37c-5.46 11.31-2.22 24.6 7.23 29.65l25 13.36c9.34 5 21.24-.09 26.6-11.31l22.22-46.55a220.33 220.33 0 0 0 69.19 13.08v50.48c0 12 8.4 20.69 18.73 19.37l27.3-3.5c10.19-1.3 18.43-12 18.43-23.88v-49.92a249.58 249.58 0 0 0 66.1-28l20.59 40c4.92 9.55 15.78 11.69 24.25 4.83l22.39-18.15c8.38-6.78 11.24-20 6.42-29.44l-20-39.29a320.22 320.22 0 0 0 47.34-60.42l33.31 20c8.18 4.91 18.6.47 23.29-9.9l12.44-27.48c4.66-10.3 1.89-22.67-6.19-27.65l-32.21-19.83a357 357 0 0 0 17.91-78.13l35.95-2.54c9.26-.66 16.75-10.37 16.75-21.71v-30.14c.03-11.39-7.46-20.15-16.72-19.61zm-283.66 201.28c-73.07 6.56-133.68-57.72-133.68-143.71s60.61-158 133.68-160.67c71.27-2.65 127.77 61.89 127.77 144.09s-56.5 153.9-127.77 160.29z" fill="#d8dee8" transform="translate(-374.81 -455)"/><path d="m2205.88 1398.77 16.74-36.87c6.27-13.82 2.55-30.41-8.33-37.1l-43.29-26.62a477.76 477.76 0 0 0 24.1-104.82l48.37-3.39c12.47-.88 22.54-13.91 22.54-29.12v-40.44c0-15.2-10.07-27-22.54-26.24l-47.1 2.69a444.22 444.22 0 0 0 -21.86-104.27l39.78-29.59a24.15 24.15 0 0 0 3.5-3.21l5.1 13.25 65.43-80.45-85.42-7.29a21.05 21.05 0 0 0 -14.12-8.4 20 20 0 0 0 -14.23 3.93l-39.34 28.59a360.76 360.76 0 0 0 -64.94-77.82l3-6.19 60.14 12.28 7.64-99.56-91.33-15.07c-10.51-4.05-22.38 1.08-28.16 13l-22.7 46.81c-29.17-14.5-5-29.77-38.15-34.19l34.68-51.06c0-15.91-101.57-26.51-115.29-26.51h-36.72c-13.9 0-25.21 13.07-25.21 29.2v54.69a325.9 325.9 0 0 0 -98.47 32l62.73-46.09s-110.53-20.91-123.1-12.63l-33.63 22.21c-12.71 8.41-17.08 26.79-9.73 41l25.44 49.21c-27.84 24.79-39.69 39.09-60.75 71.81l-59.08-13.33c-13-8-29.8-2.58-37.38 12.19l-20.2 39.46c-7.63 14.88-3.1 33.39 10.1 41.3l47.63 28.56a478.4 478.4 0 0 0 -26 116.23l-57.14 3.27c-15.38.88-27.89 15.35-27.89 32.32v45.13c0 15.39 10.3 27.37 23.68 28.68l64.94 10.41a432.21 432.21 0 0 0 26.56 95.59l-51.82 37.68c-13.2 9.59-17.73 28.68-10.1 42.59l20.24 36.85c7.58 13.8 127.94 22.2 127.94 22.2l-38.21-53.64a346.71 346.71 0 0 0 72.21 72.28l-30.14 62.22c-7.35 15.17-3 33 9.73 39.78l33.63 17.94a21.61 21.61 0 0 0 6.61 2.23l-.14.63 104.87 12.92 10.26-79.17a298.47 298.47 0 0 0 37.17 3.36v67.73c0 12 6.3 21.57 15.28 24.89l-.46 2 103.92 13 2.08-128.4a344.44 344.44 0 0 0 54.87-26.69l27.7 53.61c3.44 6.66 9 10.6 15.24 11.6l100.43 13.61-34.4-94.66-13.88 4.26-22.91-44.93a428.88 428.88 0 0 0 63.71-81l44.82 26.86c11.02 6.56 25.04.6 31.35-13.3zm-344.14-34.69c-98.32 8.76-179.88-77.52-179.88-192.91s81.56-211.9 179.88-215.5c95.91-3.51 171.93 83.12 171.93 193.4s-76.02 206.47-171.93 215.01zm420-221.56 68-32.21-68-8.25zm-83.51 274.87 77.83 10.5 11.36-26.54-64.48-39.19z" fill="#bfc8d6" transform="translate(-374.81 -455)"/><path d="m2343.72 1109.12-46.84 2.71a443.87 443.87 0 0 0 -21.74-104l39.61-29.48c10.82-8 14.52-25.07 8.28-38l-16.64-34.63c-6.28-13.06-20.22-17.22-31.15-9.24l-39.13 28.52a358.85 358.85 0 0 0 -64.56-77.57l22.51-47.15c6.45-13.53 2.62-30.66-8.58-38.3l-30-20.43c-11.33-7.72-25.86-3-32.44 10.63l-22.57 46.69a296.54 296.54 0 0 0 -93.42-28.69v-53.92c0-15.91-11-28.8-24.66-28.79h-36.52c-13.82 0-25.06 13-25.06 29.13v54.52a323.24 323.24 0 0 0 -97.91 31.92l-24.39-48c-7.17-14.1-23.09-18.84-35.59-10.55l-33.43 22.16c-12.64 8.39-17 26.72-9.67 40.91l25.28 49.06a420.67 420.67 0 0 0 -73.38 86.54l-45.72-28.16c-13-8-29.63-2.56-37.17 12.18l-20.12 39.32c-7.59 14.84-3.08 33.29 10 41.18l47.36 28.45a477.67 477.67 0 0 0 -25.86 115.91l-56.81 3.28c-15.29.89-27.73 15.32-27.73 32.24v45c0 16.92 12.44 29.76 27.73 28.67l58.32-4.12a435.05 435.05 0 0 0 28.46 109.69l-51.47 37.54c-13.12 9.57-17.63 28.61-10 42.47l20.12 36.73c7.54 13.77 24.19 17.06 37.17 7.4l52-38.73a345.16 345.16 0 0 0 71.8 72l-30 62c-7.32 15.12-3 32.9 9.67 39.66l33.43 17.87c12.5 6.68 28.42-.11 35.59-15.13l29.73-62.28a295.13 295.13 0 0 0 92.57 17.51v67.53c0 16.08 11.24 27.68 25.06 25.91l36.52-4.68c13.64-1.74 24.66-16 24.66-32v-66.6a334.08 334.08 0 0 0 88.44-37.49l27.55 53.45c6.58 12.77 21.11 15.64 32.44 6.46l30-24.28c11.2-9.08 15-26.7 8.58-39.4l-26.74-52.56a428.07 428.07 0 0 0 63.35-80.84l44.57 26.77c10.93 6.58 24.87.63 31.15-13.24l16.63-36.77c6.24-13.78 2.54-30.32-8.28-37l-43.09-26.53a477.32 477.32 0 0 0 24-104.53l48.1-3.4c12.39-.88 22.41-13.88 22.41-29v-40.33c-.01-15.19-10.03-26.9-22.42-26.19zm-379.51 269.3c-97.76 8.77-178.85-77.22-178.85-192.28s81.09-211.33 178.85-215c95.36-3.53 170.95 82.81 170.95 192.78s-75.59 205.94-170.95 214.5z" fill="#d8dee8" transform="translate(-374.81 -455)"/><path d="m2337.13 1987.61c1 466.18-246.76 846.62-688.05 859.13-6.83.19-119.45 0-126.31 0-450.8 1.1-817.1-381.77-818.15-855.15s363.56-858 814.36-859.13c10.55 0 109.5 1 120 1.35 436.2 16.3 697.13 391.49 698.15 853.8z" fill="url(#d)" transform="translate(-374.81 -455)"/><ellipse cx="1298.67" cy="1542.27" fill="url(#e)" rx="816.26" ry="857.14"/><ellipse cx="1298.67" cy="1542.27" fill="url(#f)" opacity=".3" rx="795.69" ry="835.54"/><ellipse cx="1298.67" cy="1542.27" fill="url(#g)" rx="771.67" ry="810.32"/><ellipse cx="1282.17" cy="1542.27" fill="url(#h)" rx="755.17" ry="793"/><path d="m1736.72 1974.56 575.28 223.06a699.62 699.62 0 0 0 28.83-199.54c0-357.85-267.56-650.07-604.07-668.12z" fill="url(#i)" transform="translate(-374.81 -455)"/><path d="m1467.37 1979.27c-59.72-193.41 156.2-333 122.16-558.43-15-99.48-73.48-181-145.37-246.38-339.87 104.27-587.8 434.32-586.93 824.79 1 473.39 367.34 856.25 818.14 855.15a780.27 780.27 0 0 0 311.91-65.68c-13.91-273.58-97.83-428.12-187.07-521.22-137.55-143.5-287.3-140.74-332.84-288.23z" fill="#d8dee8" opacity=".54" transform="translate(-374.81 -455)"/><ellipse cx="1280.05" cy="1554.68" fill="url(#j)" rx="48.01" ry="50.42"/><path d="m1654.86 1607.88c-16.76 0-30.34 14.26-30.34 31.86v339.88c0 17.59 13.58 31.86 30.34 31.86s30.34-14.27 30.34-31.86v-339.88c0-17.6-13.58-31.86-30.34-31.86z" fill="url(#k)" transform="translate(-374.81 -455)"/><path d="m1662.7 2004.92-543.64-159.83a19.3 19.3 0 0 0 -23.52 11.87 17.16 17.16 0 0 0 11.19 22.46l543.64 159.83a19.3 19.3 0 0 0 23.52-11.87 17.16 17.16 0 0 0 -11.19-22.46z" fill="url(#l)" transform="translate(-374.81 -455)"/><g clip-path="url(#m)"><path d="m1935 3170c11.46-13.06 24.89-51.57 24.25-63-4.25-76.4-2.93-220-59.86-277.45-9.72-9.81-64.45 21.3-79.29 17.51-39.71 11.37-52.78 17.78-95.84 10-127.12-22.83-115.08-286.42-319.18-195.69-149.51 66.46-213 194-360.5.94s-583.65-397.56-664-101.54c-46.14 169.88 202 226.07 245.7 390.13 41.55 155.89 166.1 204.7 338.59 168.37s155 67.88 212.23 200.4c68.75 159.19 278.48 13.5 369.57-62 73.33-60.9 301.09-166.27 388.33-87.67z" fill="url(#b)" transform="translate(-374.81 -455)"/><g clip-path="url(#n)" fill="#fcfdfe"><path d="m1932.27 2974.82-1-3.56c-548.68 150.88-1127.43-40.13-1548.14-510.94l-2.75 2.46c199.38 223.13 443.77 389.48 706.74 481.06 276.49 96.28 568.73 107 845.15 30.98z" transform="translate(-374.81 -455)"/><path d="m1198 3389.05c79-134.13 263.74-298.57 411.94-366.54l-1.54-3.36c-148.78 68.24-334.31 233.34-413.58 368z" transform="translate(-374.81 -455)"/><path d="m1824.22 3003.21v-3.7c-84.75-1.05-165.7-44.91-240.62-130.35-54.93-62.65-105.39-145.78-150-247.1l-3.38 1.49c44.75 101.66 95.42 185.11 150.6 248 75.69 86.31 157.56 130.59 243.4 131.66z" transform="translate(-374.81 -455)"/><path d="m1050.32 2929.39.24-3.69c-159.64-10.2-303.84 76.41-396.69 150.87l2.31 2.88c92.35-74.05 235.69-160.19 394.14-150.06z" transform="translate(-374.81 -455)"/><path d="m724.15 2763 2.59-2.64c-128.54-126.36-155.56-313.54-160.23-413.9l-3.69.17c4.69 100.9 31.89 289.15 161.33 416.37z" transform="translate(-374.81 -455)"/></g></g><g transform="translate(-374.81 -455)"><path d="m3108.72 1873.49-67.72-456.92-151.3 15.22c-12.76-2.37-37 10.91-42.77 24.3l-198.63 462.91c-6.15 14.36 3.29 30.84 17.58 30.74l56.73-2.38v1079.14c0 19.23 14 33 31.14 30.84l136 30.23c16.27-2.11 168.56-84.15 168.56-102.69v-1081.72l34.39-.18c13.03-.06 21.6-15.85 16.02-29.49z" fill="url(#o)"/><path d="m2872.67 1942.54-150.06 4.86v1079.1c0 19.23 14 33 31.14 30.84l136 30.23c6.7-.87 36.53-15.33 69.27-33.31z" fill="url(#p)" opacity=".3"/><path d="m3255.13 1910.8-196.62-482.55c-6.63-16.27-26.55-17.29-33.22-1.64l-206.92 485.59c-6.08 14.28 3.26 30.67 17.4 30.58l36.9-.24v1116.24c0 19.13 13.83 32.86 30.84 30.66l272.8-35.28c16-2.07 28.88-18.7 28.88-37.15v-1076.62l34.06-.22c12.92-.08 21.41-15.8 15.88-29.37z" fill="url(#q)"/><path d="m2453.7 3146.8-142.08-33c-17.88 2.28-32.42-11.37-32.42-30.49v-881.47c0-19.12 14.54-35.05 32.42-35.58l304.66-9c16.73-.49 158.43 7.53 158.43 7.53l-128.18 872.86c0 18.45-192.83 109.15-192.83 109.15z" fill="url(#r)"/><path d="m2767.35 3107-301.74 39c-17.71 2.29-32.11-11.27-32.11-30.3v-907.26c0-19 14.4-34.89 32.11-35.42l301.74-9c16.57-.49 30 14 30 32.29v873.69c-.03 18.31-13.43 34.9-30 37z" fill="url(#s)"/><path d="m1977.62 3208.61-149.84-33.05c-19.68 2.52-35.69-11.71-35.69-31.77l4.53-617.65c0-20.06 16-37.28 35.68-38.45l334.71-20c18.35-1.1 172.33 20.11 172.33 20.11l-143.56 605.83c0 19.31-199.59 112.58-218.16 114.98z" fill="url(#t)"/><path d="m2318 3165.15-331.53 42.85c-19.49 2.52-35.34-11.61-35.34-31.58v-637.32c0-20 15.85-37.1 35.34-38.28l331.54-20c18.18-1.09 32.87 13.58 32.87 32.77v612.57c0 19.18-14.69 36.64-32.88 38.99z" fill="url(#u)"/><path d="m1434.23 3271.62-140.23-27.9c-21.77 2.78-39.48-12.07-39.48-33.18v-320.94c0-21.1 17.71-39.81 39.48-41.77l369.64-33.27c20.24-1.83 160.3 14.57 160.3 14.57l-123.73 326.07c0 20.24-245.46 113.8-265.98 116.42z" fill="url(#v)"/><path d="m1823.93 3229-366 47.33c-21.55 2.79-39.08-12-39.08-33v-339.33c0-21 17.53-39.61 39.08-41.57l366-33.28c20-1.82 36.22 13 36.22 33.18v325.58c0 20.09-16.15 38.54-36.22 41.09z" fill="url(#w)"/><path d="m1112.3 3006.37-410.23 42.35c-17.51 1.81-32.62 12.84-39.66 27.22a40.08 40.08 0 0 0 -4.24 17.62v176.36c0 22.26 18.84 40.49 43.9 49.37l145 28.81c22.77-2.94 305.78-103.63 305.78-124.93l68-81.78 68.81-116.52s-154.95-20.81-177.36-18.5z" fill="url(#x)"/><path d="m1278.05 3299.63-406.05 52.52c-24 3.09-43.46-12.34-43.46-34.48v-204.57c0-22.14 19.5-42.13 43.46-44.63l406.1-42.38c22.19-2.32 40.11 13 40.11 34.19v195.79c-.05 21.19-17.97 40.69-40.16 43.56z" fill="url(#y)"/></g></svg>