<svg viewBox="0 0 453.85 378.36" xmlns="http://www.w3.org/2000/svg"><ellipse cx="223.75" cy="360.86" fill="#ccd7f3" rx="201.22" ry="17.5"/><path d="m155.65 166c1.66 1.17 2 3.65 5.09 4.29-3.1.75-3.53 3.15-5.06 4.54-.06-.3-.11-.59-.17-.88l-.34-.67h.06a3.29 3.29 0 0 0 -2.8-2.53l-.18-.78a3.91 3.91 0 0 0 3.4-4z" fill="#ececf0" transform="translate(-23.07 -29.13)"/><path d="m250.76 53.22c-2.32.76-3.06 2.5-3.9 4.37a5.16 5.16 0 0 0 -3.29-4.32 5.63 5.63 0 0 0 3.29-4.69c.74 2.31 1.76 3.82 3.9 4.64z" fill="#ececf0" transform="translate(-23.07 -29.13)"/><path d="m191.44 103.86c.2-.43.71-.87-.05-1.26 1.12-.82 1.69-2 2.09-3.94.73 2.25 1.63 3.77 3.92 4.52-2.18.9-3.21 2.26-3.78 4.89-.54-2.07-1.1-3.32-2.18-4.21z" fill="#ececf0" transform="translate(-23.07 -29.13)"/><path d="m188.77 279.19c.57 2.6 2.38 4 5.24 5.06-3.63 1.08-5 3.71-6 7.05a9.42 9.42 0 0 0 -1.11-3.63c-.64-1.45-2-1.9-3.32-2.42a1.32 1.32 0 0 1 -.86-1.24c0-1 .75-.24 1.13-.37 2.79-.94 3.61-3.32 4.17-6.19z" fill="#ececf0" transform="translate(-23.07 -29.13)"/><path d="m218.79 141.29c-3.29.76-4.27 3.42-5.09 6.29-.66-1.52-.63-3.26-2-4.35l-.82-.9a2.29 2.29 0 0 0 -1.76-1l-1.48-.48.09-.14-.14-.09 1.52-.45a3.15 3.15 0 0 0 2.21-1.31l.57-.77v.06l.63-1.1-.05.05a2.26 2.26 0 0 0 .68-1.82l.51-1.07c.77 1.37.69 3.19 2.27 4 .13 1.88 2.78 1.26 2.86 3.08z" fill="#ececf0" transform="translate(-23.07 -29.13)"/><path d="m293.12 100.53a15 15 0 0 0 -.82 1.31c-.21.47-.31 1-.59 1.88-1-2.12-1.25-4.35-3.33-5.33a1.1 1.1 0 0 0 -1.09-.45c.51-.52-2.18-.36-.24-1.26s3.38-2.27 3.49-4.6a.74.74 0 0 0 .54-.94c.35 0 .78-.08.87.37.59 3 2.8 4.55 5.29 5.83-1.72.56-2.91 1.89-4.12 3.19z" fill="#ececf0" transform="translate(-23.07 -29.13)"/><path d="m173.57 249a.9.9 0 0 1 -.75-.91c3.32-.39 4.34-2.92 5.3-6.2 1 3.34 2.45 5.74 6.17 6.5-3.41 1.15-5.23 3-5.69 6-.66.5-.66.5-1.11-.76a5.38 5.38 0 0 0 -3.92-4.63z" fill="#ececf0" transform="translate(-23.07 -29.13)"/><path d="m291.06 186.88c-2.68.84-3.26 3.23-4.16 5.73-1.58-2.52-1.83-6.11-5.94-6.24 3.59-1.07 5.23-3.42 5.8-7.38 1.06 3.61 2.28 6.28 5.76 6.84z" fill="#ececf0" transform="translate(-23.07 -29.13)"/><path d="m212.54 219.66-1 2.4c-.66-3.18-1.92-5.68-5.65-6.67 1.78-.75 3.24-1.24 4-2.64 1.07-1 1.17-2.49 1.75-4.05.83 3.12 2.27 5.48 5.63 6.61-2.27 1.04-4.06 2.17-4.73 4.35z" fill="#ececf0" transform="translate(-23.07 -29.13)"/><path d="m244 201.17c-2.47 1.06-3.6 2.57-4.35 5.27-.71-2.62-1.59-4.33-4.37-5.17a6 6 0 0 0 4.34-4.74 6.49 6.49 0 0 0 4.38 4.64z" fill="#ececf0" transform="translate(-23.07 -29.13)"/><path d="m283.64 140.43a1.69 1.69 0 0 1 -1 1c-1.72.69-2.13 2.42-3 3.84l-.76-1.1c-.11-1.92-1.63-2.55-3.36-3.45 2.44-.89 3.77-2.45 3.89-4.87a1.23 1.23 0 0 0 .22-.29c.53 2.3 1.37 4.3 4.01 4.87z" fill="#ececf0" transform="translate(-23.07 -29.13)"/><path d="m333.91 235.82c1.21-.95.88-2.63 1.84-3.92.65 3.22 2.2 5.53 5.68 6.52-2.78 1.12-4.73 2.7-5.26 5.53-.41 1.13-.82 1.12-1.05-.06-.53-2.8-2.28-4.46-5-5.35 1.43-.78 3.05-1.16 3.79-2.72z" fill="#ececf0" transform="translate(-23.07 -29.13)"/><path d="m314.38 267c-2.75 1-3.77 2.59-4.62 5.1-.73-2.42-1.62-4.18-4.35-5 2.61-.91 3.82-2.47 4.27-5.5.82 2.83 1.78 4.57 4.7 5.4z" fill="#ececf0" transform="translate(-23.07 -29.13)"/><path d="m192.41 183.36c-2.52.9-3.58 2.69-4.38 5.27-.53-2.72-1.61-4.49-4.42-5.27 2.81-.78 3.95-2.45 4.39-5.13.84 2.43 1.89 4.24 4.41 5.13z" fill="#ececf0" transform="translate(-23.07 -29.13)"/><path d="m287.78 222c2-.95 3.39-2 3.74-4.14a6.16 6.16 0 0 0 3.81 3.93 6.38 6.38 0 0 0 -3.71 4.84c-.69-2.54-1.45-4.18-3.84-4.63z" fill="#ececf0" transform="translate(-23.07 -29.13)"/><path d="m229.23 284.5c-2 .48-2.86 1.95-3.59 4.64-.54-2.56-1.3-4.08-3.64-4.76a6.26 6.26 0 0 0 3.66-4c.62 2.01 2.19 2.98 3.57 4.12z" fill="#ececf0" transform="translate(-23.07 -29.13)"/><path d="m248.44 159.6c.82 2.09 1.63 3.54 4.26 4.18a5.65 5.65 0 0 0 -4.18 4.24c-.84-1.85-1.43-3.56-4.25-4.07a5.59 5.59 0 0 0 4.17-4.35z" fill="#ececf0" transform="translate(-23.07 -29.13)"/><path d="m251.7 332.36c-.48-1.69-2.58-1.84-3.22-3.39 2.51-.48 3.4-2.29 3.78-4.78 1 2.13 1.74 4.23 4.71 5-2.67.94-3.71 2.62-4.47 4.89z" fill="#ececf0" transform="translate(-23.07 -29.13)"/><path d="m256.3 257.22-.66 1.76c-.78-3.58-2-6.23-6.2-7 4-.83 5.48-3.14 6.23-6.33.86 3 2.49 5.23 5.41 6.31a1 1 0 0 1 -.14.22c-.06.07-.14.11-.2.17a6.34 6.34 0 0 0 -4.44 4.87z" fill="#ececf0" transform="translate(-23.07 -29.13)"/><path d="m342.41 205.52c0-2.43-2.25-3.15-3.45-4.66 2.47-.33 3.12-2.27 3.8-4.51.83 2.1 1.68 4 4.37 4.77-2.76.86-2.7 3.5-4.39 4.75 0 0-.13-.07-.18-.13a1.7 1.7 0 0 1 -.15-.22z" fill="#ececf0" transform="translate(-23.07 -29.13)"/><path d="m304.2 312.41c-.48-3-1.59-4.66-4.27-5.52 2.67-.78 3.82-2.44 4.26-5.23.78 2.6 1.87 4.36 4.46 5.22-2.6.98-3.65 2.74-4.45 5.53z" fill="#ececf0" transform="translate(-23.07 -29.13)"/><path d="m173.25 152.58c1.65-.57 1.17-2.7 2.54-3.47a4.86 4.86 0 0 1 3.21-2.11c-.07-.94-1.06-.85-1.51-1.37-2.51-1-3-3.47-3.94-6.2-.57 3.87-2.11 6.36-6.21 7.25 3.82.87 5.47 2.84 5.91 5.9z" fill="#ccd7f3" transform="translate(-23.07 -29.13)"/><path d="m142.11 210.76-.6 1.38c-.49 1.72-1.88 2.52-3.5 3.25 2.88.38 3.11 3.06 4.52 4.65.28-1.49.73-2.86 2.23-3.58l.51-.42 1.14-.47c-.07-.24-.15-.48-.23-.73-2.51-.07-2.79-2.55-4.07-4.08z" fill="#ccd7f3" transform="translate(-23.07 -29.13)"/><path d="m229.17 74.64c.94-2.29 2-4.1 4.68-5.07-2.87-.75-3.87-2.56-4.64-5-.63 2.53-1.51 4.4-4.14 5.1 2.61.6 3.35 2.6 4.1 4.97z" fill="#ccd7f3" transform="translate(-23.07 -29.13)"/><path d="m188.28 108.18c.6-2.24 1.41-3.68 3.16-4.32.2-.43.71-.87-.05-1.26-2.08-.64-2.47-2.61-3.39-4.46-.49 2.4-1.42 4.26-3.86 5.13 2.42.73 3.06 2.73 4.14 4.91z" fill="#ccd7f3" transform="translate(-23.07 -29.13)"/><path d="m335.13 243.89c-.54-2.8-2.29-4.46-5.05-5.35 1.47-.78 3.09-1.16 3.83-2.72-2.86-5.66-6.19-11-11.17-15.07a45 45 0 0 0 -27.15-10.28c-.62 0-1.24-.09-1.85-.14-4.77.29-9.53.5-14.22 1.7a115.33 115.33 0 0 0 -14.69 4.5c-9.24 3.7-18.29 8-28.22 9.64-8.94 1.44-17.5 1-24.07-6.51l-1 2.4c-.66-3.18-1.92-5.68-5.65-6.67 1.78-.75 3.24-1.24 4-2.64-1.68-11.07 5.91-23.07 16.46-26a14.44 14.44 0 0 1 18.08 16.44c-.79 4.36-4 6.14-8.1 4.47a15.6 15.6 0 0 1 -4.13-2.45c-1.12-.92-2.28-1.81-3.78-3a15.73 15.73 0 0 0 1.64 5.33c3.37 7.76 8.35 11 16.79 10.46 7.68-.47 14.07-3.92 19.69-9a30.34 30.34 0 0 0 10.36-25.09c-.37-6.82-3-13.16-6.78-18.94a54.5 54.5 0 0 0 -27.75-22.08 61.26 61.26 0 0 0 -23.54-1.58c-3.29.76-4.27 3.42-5.09 6.29-.66-1.52-.63-3.26-2-4.35l-1.5.3-6.32 2.66-1.71 1-4.11 2.37h-.08a.87.87 0 0 1 -1 .62v.05c-.19.84-.9 1.1-1.55 1.42l-2.94 2.58-6.33 7.06-.44.51-5.92 10.81a.51.51 0 0 1 -.14.4 20.44 20.44 0 0 1 -1.91 4.82l-.27 1.07a8.39 8.39 0 0 1 -1 3.2c-.07.37-.13.73-.2 1.09-.13.54-.27 1.07-.4 1.6-.11.37-.23.73-.34 1.1-.58 4-1.39 8-1.7 12.09a53.66 53.66 0 0 0 2.7 22l.42 1.1.14.18-.15.15-.47.32c.18 1.3 2 1.23 2.16 2.52q2.67 3.77 5.33 7.52c1.09.89 2.21 1.75 3.27 2.67 10.26 8.92 22 13.48 35.73 12.06 1.54-.58 3.3 0 4.8-.92l1.13-.24 1.07-.14 5.32-1.74 1.1-.44a1 1 0 0 1 .49-.17c7.66-3.14 15.29-6.34 23.8-6.26a24 24 0 0 1 23.76 22 15.89 15.89 0 0 1 -15.12 17.26c-5.87.3-11.29-1.3-16.48-3.76-4.83-2.29-9.55-4.77-14.32-7.17l-.57-.42a1.81 1.81 0 0 1 -1.59-1.09 6.41 6.41 0 0 1 -3.72-1.14l-1.62-.53-.81-.47-1.34-.14h-.25l-.25-.05c-1.18.1-2.16-.55-3.23-.88-1-.06-2-.07-2.93-.19a32.27 32.27 0 0 0 -22.07 5.54c-5.16 3.4-8.53 8.25-11.42 13.54.57 2.6 2.38 4 5.24 5.06-3.63 1.08-5 3.71-6 7.05a9.42 9.42 0 0 0 -1.11-3.63 31.41 31.41 0 0 0 3.17 18.91c3.76 7.33 9.52 11.68 18 12.15 4.86.26 9.57-.6 14.28-1.49 5.24-1 10.43-2.28 15.81-2.21a37.35 37.35 0 0 1 19.6 2.48c10.67 4.53 14.65 14.65 9.91 25.26-1.83 4.09-4.68 7.54-6.91 11.37l.47.46c16.9-8.85 20.23-27.42 12.63-41.69-3.29-6.17-9.11-8.62-15.4-10.35-6.59-1.81-13.48-2.39-19.94-4.78a18.46 18.46 0 0 1 -6.67-3.76c-2.74-2.65-4.4-5.61-2.58-9.51-2 .48-2.86 1.95-3.59 4.64-.54-2.56-1.3-4.08-3.64-4.76a6.26 6.26 0 0 0 3.66-4c.61 2 2.18 3 3.56 4.1 4.11-4.89 9.34-5.62 15.4-4.78 7.56 1 13.62 4.83 19.74 8.94 4.21 2.84 8.19 6.06 12.87 8.26a48.44 48.44 0 0 0 11.16 3.41 64.58 64.58 0 0 0 27.58-5.35c9.48-4.1 15.87-11 18.93-20.9s3.8-19.9 1.26-30c-.43 1.09-.84 1.08-1.06-.1zm-86.69-84.29c.82 2.09 1.63 3.54 4.26 4.18a5.65 5.65 0 0 0 -4.18 4.24c-.84-1.85-1.43-3.56-4.25-4.07a5.59 5.59 0 0 0 4.17-4.35zm-60.41 29c-.53-2.72-1.61-4.49-4.42-5.27 2.81-.78 3.95-2.45 4.39-5.13.84 2.43 1.89 4.24 4.41 5.13-2.52.93-3.58 2.72-4.41 5.3zm103.59 38c-.69-2.52-1.45-4.16-3.84-4.63 2-.95 3.39-2 3.74-4.14a6.16 6.16 0 0 0 3.81 3.93 6.38 6.38 0 0 0 -3.71 4.85zm18.14 45.49c-.73-2.42-1.62-4.18-4.35-5 2.61-.91 3.82-2.47 4.27-5.5.82 2.81 1.78 4.55 4.7 5.38-2.75 1.03-3.77 2.62-4.62 5.13z" fill="#ccd7f3" transform="translate(-23.07 -29.13)"/><path d="m213.33 234.33v.01h.01z" fill="#ccd7f3"/><g transform="translate(-23.07 -29.13)"><path d="m283.05 169.15a.3.3 0 0 1 0-.08v.11z" fill="#ccd7f3"/><path d="m259.73 131.55c3.83 6.12 11.43 10.94 19.65 4.33a1.23 1.23 0 0 0 .22-.29c2.23-2.64 4-5.5 4-9.1.07-4.52-2.39-6.61-6.81-5.68-1.73.36-3.41 1-5.36 1.54a6.12 6.12 0 0 1 3.74-5.35c4.81-2.13 11.35.21 13.86 4.85 3.06 5.63 2.49 10.2-1.86 14.93-1.15 1.24-2.36 2.44-3.54 3.65a1.68 1.68 0 0 1 -1.05 1l-2.77 5.24c-.16.6-.32 1.2-.47 1.8v.13l-.13.1c-1.61 7.31.4 14 3.75 20.34-.14-1.73-.28-3.47-.43-5.21-.55-6.7-.51-13.27 4.44-18.63 2.68-2.91 6.05-5 9.31-7.13 6.83-4.55 10.92-10.59 9.68-19.1-1.19-8.22-5.05-14.78-12.89-18.47a15 15 0 0 0 -.82 1.31c-.21.47-.31 1-.59 1.88-1-2.12-1.25-4.35-3.33-5.33l-1.09-.45c-3.61-.45-7.22-1-10.88-.61-4.76.5-9.17 1.93-12.8 5.17-5.68 5.06-7.45 11.67-7.33 19 .83 3.53 1.56 6.99 3.5 10.08z" fill="#ccd7f3"/><path d="m177.49 253.59a9.5 9.5 0 0 1 -3.92-4.59.9.9 0 0 1 -.75-.91 15.66 15.66 0 0 1 -1.32-4.94c-.16-.31-.27-.82-.51-.89-.55-.17-.34.41-.39.65-.3 1.75-.52 3.53-1.71 5a7.36 7.36 0 0 1 -.75 2.22c-.92 1.21-1.35 3.14-3.53 2.82l-.21.86c-1.47 1.5-3.72 1.39-5.68 2.57 7 1 11.28 6.1 12 13.9 1.87-6.74 4.81-12.54 12.75-14.07l-4.89-1.84c-.64.48-.64.48-1.09-.78z" fill="#ccd7f3"/><path d="m226.08 117c5.24 1.48 8 4.55 8.69 9.34l-.42.71c1.08 1 1.32.52 1.56-.71a11.5 11.5 0 0 1 5-7.58c1.09-.74 2.68-.59 3.51-2-5.25-1.35-7.77-5-8.68-10.08-.05-.26.28-1.23-.71-.73l-.15 1.07c-.47 5.21-3.17 8.54-8.8 9.98z" fill="#ccd7f3"/><path d="m346.71 161.68c-.07-.34-.15-.68-.23-1-.16-.53-.33-1.06-.49-1.59-.34-1.07-.67-2.14-1-3.22-.14-.37-.29-.75-.44-1.12s-.35-.71-.52-1.06l-3.24-5.16a29.7 29.7 0 0 0 -7.1-5.61c-10.14-5.08-25.23-1.55-32.91 7.54-4.95 5.87-6.13 12.45-4.69 19.77.93 4.74 1.74 9.58.55 14.33-2 7.9-7.28 13.48-13.5 18.43 9.52-2.48 18.92-5.23 26.61-11.89l.92-1.11c.41-.51.82-1 1.22-1.55a22 22 0 0 0 2.72-8.55v-1.08-2.13a16.82 16.82 0 0 1 .55-8.59l.9-2.15c.87-2.06 2.13-3.74 4.42-4.36a1.53 1.53 0 0 1 1.63-.62v.08l.6-.39a5.6 5.6 0 0 1 2.7-.07 1.93 1.93 0 0 1 1.59.42l1.12.58c2.82 2 3.3 4.3 1.58 7.58a2 2 0 0 1 -1.07 1.61c-1.9 3-4.32 2.69-6.95 1.09v1a2.16 2.16 0 0 1 .24 1.63l.75 3.15 2 2.74a.33.33 0 0 1 .24.27l2.7 1.67a20.68 20.68 0 0 0 6.76 1l1.17-.19 4.23-1.36.59-.36a21.88 21.88 0 0 0 4.38-4.27l.7-1.22a25.26 25.26 0 0 0 1.74-11.66 6 6 0 0 1 -.47-2.58z" fill="#ccd7f3"/><path d="m320.49 128.93c1.85-4.41 2.34-5 5.94-6.89-3.4-.88-5-3.3-5.92-6.4-.48 3.48-2.21 5.72-6.2 6.58 4.04.78 5.46 3.3 6.18 6.71z" fill="#ccd7f3"/><path d="m283.05 169.15.27.36z" fill="#ccd7f3"/><path d="m248.48 329-1.71-3.58a7.55 7.55 0 0 1 -5.73 6.76c4 1 5.2 3.53 5.87 7.35.66-3.62 2.14-5.83 4.79-7.14-.48-1.72-2.58-1.87-3.22-3.39z" fill="#ccd7f3"/><path d="m265.29 256a8.08 8.08 0 0 1 -4.55-3.69 6.34 6.34 0 0 0 -4.44 4.87c2.2 1 2.44 3.3 3.5 5.48a8.94 8.94 0 0 1 5.49-6.66z" fill="#ccd7f3"/><path d="m339 200.86a13.44 13.44 0 0 1 -3.07-7.89l.05-.07-.83.23c.06 4-1.12 7.44-4.83 9.58l-2.18 1-2 .77c1.56.54 2.86.56 3.79 1.51 4.06 1.87 4.68 5.86 5.79 10 1-4.7 2.52-8.48 6.72-10.49.01-2.41-2.28-3.13-3.44-4.64z" fill="#ccd7f3"/><path d="m363.76 219.8c-.3 2.74-1.7 3.91-3.77 5 2.45.78 3.2 2.63 4.13 4.7.85-2.18 1.64-4 4.28-4.68-2.4-1.04-3.47-2.67-4.64-5.02z" fill="#ccd7f3"/><path d="m354.42 156.39c.55 3.25 1.89 5.93 5.27 7.13-.11 1-1.25.79-1.7 1.4a4.33 4.33 0 0 0 -2.33 2.58c-.74.84-.74 2-1.23 3.2-.93-3.16-1.8-6.19-5.64-6.51 0-.21 0-.43-.05-.64.65-.12 1.38 0 1.78-.74l.54-.5a1.56 1.56 0 0 0 1.68-1.66 3.5 3.5 0 0 0 1.13-3.17c.51-.2.48-.67.55-1.09z" fill="#ececf0"/><path d="m37.43 223.21c3.38-5.1 7.8-9.33 11.74-14 5.08-6 10.29-11.85 15.34-17.86 1.46-1.75 2.63-2.26 4.56-.62q28.56 24.27 57.21 48.36c1.13 1 1.72 1.92 1.15 3.37-1.37 3.85-4.57 6.36-7.1 9.3-6.27 7.28-12.48 14.61-18.88 21.77-.8.88-1.45 2-2.8 2.09-1.33-.34-2-1.59-3.07-2.24-17.77-14.82-35.32-29.91-53.1-44.73-1.88-1.58-4.07-2.97-5.05-5.44z" fill="#adc3f4"/><path d="m37.43 223.21c8 6.69 16 13.36 24 20.09q17.41 14.7 34.79 29.55c.75 1.21 0 2.12-.69 2.93a84 84 0 0 1 -5.6 6.83c-3.26 3.17-6 6.59-6.93 11.19-6.18-4.4-11.73-9.56-17.48-14.49-4.44-3.82-9.09-7.4-13.5-11.27-5.87-5.17-11.93-10.13-17.91-15.16-2.58-2.17-5.24-4.24-7.75-6.47-4.14-3.67-4.4-6.25-.6-10.21 3.53-3.67 6.54-7.75 9.92-11.54a15.49 15.49 0 0 1 1.75-1.45z" fill="#33479d"/><path d="m98.64 275.27q13.35-15.4 26.7-30.79c.63-.73 1.39-1.35 2.09-2l6.62 5.69c.74 1.72-.66 2.62-1.52 3.6q-12.87 14.85-25.74 29.68c-1.55 1.31-2.51 3.24-4.36 4.24a1.91 1.91 0 0 1 -1.59-.11c-1.68-1.06-2.91-.75-4.19.83s-2 2.83-.31 4.49a1.77 1.77 0 0 1 .27 1.86 7.82 7.82 0 0 1 -2 2.55c-2.58 2.39-4.93 2.42-7.48.1s-2.91-4.78-.78-7.44c3.19-4 6.68-7.72 10.06-11.55a2.74 2.74 0 0 1 2.23-1.15z" fill="#f7f7e0"/><path d="m106.11 280.94q11.61-13.49 23.22-27c1.62-1.9 3.15-3.87 4.72-5.81.88-.34 1.9-1.07 2.58.11s-.29 1.81-.93 2.54l-27.59 31.65c-1.34.4-1.87-.28-2-1.49z" fill="#adc3f4"/><path d="m98.64 275.27c-3.83 4.44-7.68 8.88-11.5 13.34-2.2 2.57-2 3.74.77 6.24 2.18 2 4.12 2.22 6.08-.24.74-.93 1.61-1.76 2.42-2.64 1.28-.18 2.14.16 2 1.68-.9 1.08-1.74 2.23-2.73 3.23-3.08 3.12-5.83 3.19-9.13.28-1.22-1.08-2.38-2.24-3.56-3.36-1.29-4.05 1.38-6.61 3.69-9.11a84 84 0 0 0 9.53-11.84 4.84 4.84 0 0 1 2.43 2.42z" fill="#7b88d0"/><path d="m98.42 293.65a3.86 3.86 0 0 0 -2-1.68 7.33 7.33 0 0 0 -1.42-1.35c-1.85-1.06-1.81-2.17-.28-3.47a3 3 0 0 0 .64-.74c1.78-3.29 4-3.75 6.7-1.05 1.13.15 2.14.42 2.25 1.82 3 1.76 2.29 4.48 1.89 7.13-.21 1.38-.4 2.77-.66 4.57z" fill="#fd4d0a"/><path d="m104.34 287.18-2.25-1.82 4-4.42 2 1.51c-1.24 1.55-2.49 3.16-3.75 4.73z" fill="#7b88d0"/><path d="m116.94 119.45a5 5 0 0 0 -3.94 3.84 48.6 48.6 0 0 0 -1.81 12 11 11 0 0 0 3.88-3.8 7.78 7.78 0 0 0 6.72.48l2.16-12.3c-2.33-.28-4.63-1.45-7.01-.22z" fill="#33479d"/><path d="m107.11 181.25c-1.81.39-2.74 1.79-3.66 3.19a43.21 43.21 0 0 0 -1.92 11.89c.86-1.93 2.53-2.92 4.35-3.74 2.13-.49 4.18.27 6.27.44q.9-5.84 1.81-11.68c-2.28-.46-4.55-1.15-6.85-.1z" fill="#33479d"/><path d="m114.47 135.55a6.58 6.58 0 0 0 -3.81 3.34 37.2 37.2 0 0 0 -1.73 10.47 7.34 7.34 0 0 1 4.88-4 18.55 18.55 0 0 1 5.75.59c.54-3.42 1.09-6.83 1.63-10.25-2.19-.35-4.46-1.01-6.72-.15z" fill="#33479d"/><path d="m124 119.68q25.52 4 51 8c1.73.27 2.21 1.12 1.94 2.79q-5.74 35.76-11.43 71.54a5.14 5.14 0 0 1 -2.64 0q-23.68-3.78-47.37-7.53c-1.23-.19-2.53-.27-3.5-1.25a3.17 3.17 0 0 1 -.4-2.36c.5-3.3.86-6.63 1.67-9.88.74-6.73 2-13.38 3-20.06.8-5.06 1.4-10.16 2.54-15.17a77.15 77.15 0 0 1 1.62-10.15 14.9 14.9 0 0 1 .6-3.75c.23-3.31.91-6.55 1.45-9.81a3.2 3.2 0 0 1 1.52-2.37z" fill="#656fcb"/><path d="m119.56 146c-8.41 49.08-1.15 30.33-16.32 37.83 2.13-12.26 3-24 6.32-36.38 1.85-2.99 7.75-4.16 10-1.45z" fill="#ccd7f3"/><path d="m112.15 193 50.44 8a4.8 4.8 0 0 1 2.9 1c-.07.56-.15 1.11-.23 1.66a2.26 2.26 0 0 1 -2.67.76q-26.59-4.15-53.09-8.42c-1.42-.23-2.82-.51-3.94.72a10.41 10.41 0 0 0 -1.16 1.89 3.76 3.76 0 0 0 3 5.22 7.45 7.45 0 0 1 2.58.62c.89 1 2 .38 3 .32a17 17 0 0 1 3.34.55c.94.19 1.4 1.84 2.72.89 12.23 1.75 24.39 3.85 36.58 5.71 1.16 0 2.27.35 3.42.44.76.05 1.6.35 2.21-.43a1.36 1.36 0 0 1 .58-.28c1.06.47 1.28 1.58 1.83 2.43 0 1.51-.68 2-2.26 1.76-18.39-3-36.8-5.83-55.19-8.8-4.72-.76-6.73-5.62-4.62-10.74.22-2.86 2.52-3.57 4.64-4.47 2.07-.26 4.16-.39 5.92 1.17z" fill="#877ef0"/><path d="m111.19 135.3c1.63-3.88 5.89-4.56 10.6-3.32-.07 2.44-.7 3.32-1.33 3.63-1.11.55-2.24-.67-4.06-.56a6 6 0 0 0 -4.1 2.52c-.58.51-1.28 1-1.62.84s.01-1.91.51-3.11z" fill="#ccd7f3"/><path d="m163.07 203.91 2.19-.22q-.82 5.2-1.66 10.42c-1.1-.34-2.06-.8-1.75-2.24a1.27 1.27 0 0 1 -.59-1.28 7.76 7.76 0 0 1 .17-1.44 13.18 13.18 0 0 1 .23-1.4 11 11 0 0 1 .22-1.38 6.23 6.23 0 0 1 .18-1.05 1.68 1.68 0 0 1 1.01-1.41z" fill="#33479d"/><path d="m128.26 165.5c.76-4.78 1.5-9.57 2.28-14.35.44-2.65 1.35-3.33 4-2.92q11.7 1.82 23.4 3.71c3.23.53 3.86 1.44 3.34 4.75q-2.06 13.25-4.2 26.49c-.14.88-.42 1.74-.63 2.6a2.11 2.11 0 0 1 -2.67 1.73q-12.92-2-25.83-4.1c-2-.32-2.23-1.68-2-3.34.78-4.86 1.54-9.71 2.31-14.57z" fill="#ccd7f3"/><path d="m148.17 139.94c-4.42-.7-8.84-1.42-13.26-2.1-1.3-.2-2.48-.65-2.25-2.17s1.37-1.73 2.74-1.51q13.24 2.13 26.51 4.2c1.34.21 2.33.67 2 2.27s-1.5 1.58-2.75 1.38z" fill="#ccd7f3"/><path d="m111.26 198.83c2.48-.59 4.81.42 7.2.74 1 .13.66 1 .58 1.64-.22 1.84-.48 3.67-.73 5.5-1.32 1.62-1.17-.81-1.94-.7-1.22-1-2.51-1.53-4-.66-.69-.31-1.75 2.4-2.16-.26a2.25 2.25 0 0 1 -.41-1.36 6.21 6.21 0 0 1 .18-1.42 9.56 9.56 0 0 1 .22-1.39 5.06 5.06 0 0 1 .33-1.38 1.22 1.22 0 0 1 .73-.71z" fill="#fd4d0a"/><path d="m112.34 205.35c2.27-1.73 2.27-1.73 4 .65z" fill="#e4eae6"/><path d="m163.07 203.91-54.69-8.72c-1.58-.25-3 .06-3.78 1.64-2.62 3.67-1.21 7.15 3.19 7.87l2.39.39c.07-.47.14-1 .22-1.42s.14-.88.22-1.32l.19-1.33c.08-.45.15-.89.23-1.33 0-.15.07-.3.11-.44 1.35.27 2.73.33 4.09.56 2.91.51 2.89.53 2.59 3.41-.13 1.17-.8 2.49.48 3.49.89.13 1.77.25 2.65.39l35.1 5.5c1.32.23 2.65.41 3.95.7s1.67-.23 1.65-1.37l.19-.06.09-1.37c.06-.46.13-.91.19-1.37s.15-.86.23-1.29.13-.91.2-1.36c0-.29.07-.59.11-.88.13-.6.27-1.13.4-1.69z" fill="#f7f7e0"/><path d="m426 380.15c-.27-.92-.53-1.84-.8-2.76-1.23.55-2.48.23-3.72.09h1.28a2.94 2.94 0 0 0 2.31-.49 48.72 48.72 0 0 1 -2.63-5.88c-1-3.4-4.21-5.32-5.5-8.55-.78-2-1.65-4-3.45-5.36a4.94 4.94 0 0 0 -2.67-1c-11.15-1.22-22.16-3.35-33.2-5.3-6.09-1-12.12-2.41-18.18-3.58-12.22-2.36-24.5-4.1-37-4.13-2.93.05-5.86 0-8.79 0a59.9 59.9 0 0 0 -9.54 1c-14.17 2-27.34 6.49-38.42 15.9-2.79 2.38-5.83 4.65-7.36 8.21 0 .81.61 1.17 1.21 1.46 4.93 2.44 8.31 6.38 10.88 11.12.46.85.88 1.75 2 2a10.8 10.8 0 0 0 4.52-.38c11.67-3 23.6-4 35.59-4.31a211.35 211.35 0 0 1 25.38 1.43q16.2 1.61 32.41 3c1.86 0 3.69.46 5.56.46q23.82 0 47.64 0c1 0 2.11.11 3-.73z" fill="#cdb299"/><path d="m229.93 345.36c-9.28-4.42-19.32-5.48-29.37-6.06a146.07 146.07 0 0 0 -27.86 1.52c-16.43 2.18-32.5 6.18-48.7 9.57q-15.68 3.23-31.46 5.73a9.7 9.7 0 0 0 -4 1.14c-1.21 1-1.58 2.48-2.32 3.75-1.17 2-1.87 4.57-3.57 5.81-1.9 1.4-2.51 3.07-3.2 5-1 2.65-2 5.28-3 7.91.61.59 1.39.41 2.12.43h.89-1.59a2.58 2.58 0 0 0 -1.9.45l-.45 1.76c1 1 2.37.74 3.6.73 12.33-.11 24.67.39 37-.45 6.81-.55 13.63-.89 20.45-1.31 7.2-.44 14.39-1 21.59-1.55 9.94-.72 19.89-1.3 29.85-1.62 6.18-.2 12.33.43 18.5.85a82.61 82.61 0 0 1 19.74 3.44 5.31 5.31 0 0 0 2.27.19c1-.45 1.3-1.41 1.74-2.26 3.74-7.21 9.61-11.39 17.74-12.25 1.14-.12 2.42 0 3.16-1.25a6.17 6.17 0 0 0 -1-2.93 44.1 44.1 0 0 0 -20.23-18.6z" fill="#cdb299"/><path d="m329.78 289.73a167.79 167.79 0 0 1 20.53-12.08c6.08-3.11 12.28-6 18.42-9l7.16-2.7c-1.42 5.1-2.76 9.86-4.07 14.62-.45 1.62-2 1.24-3 1.42q-10.65 1.86-21.17 4.36a171.52 171.52 0 0 0 -17.76 5.14 3.23 3.23 0 0 1 -1.89.51c-.22-1.44 1.46-1.31 1.78-2.27z" fill="#bea38d"/><path d="m329.78 289.73c.12 1.32-1.67 1.1-1.8 2.22a8.79 8.79 0 0 1 -3.13 1.38c1.29-1.69 3.23-2.49 4.93-3.6z" fill="#92806d"/><path d="m272 382.51a18.89 18.89 0 0 0 4.55-.5c26.18-.8 52.37-.15 78.56-.34q5.91 0 11.81.47a8.31 8.31 0 0 0 3.08-.14c17.54.86 35.1.22 52.65.41 1.26 0 2.52 0 3.79-.05 2.44.34 3.64 1.43 3.5 3.2s-1.44 2.68-3.92 2.69q-73.14 0-146.26 0c-.94 0-2-.34-2.79.41a14.32 14.32 0 0 1 -5.1-.05c-1.36-.26-2.62-.78-2.48-2.56.14-.47.37-.82.92-.54 1.81.93 1.88 0 1.55-1.41-.11-.52-.35-1.1.14-1.59z" fill="#656fcb"/><path d="m75.52 382.37c12.33-.06 24.67.48 37-.34 1.26-.08 2.53 0 3.79 0 3.49.46 7-.07 10.46-.14 3.19-.06 6.4-.18 9.59-.18 28.24 0 56.48 0 84.73-.06 1.93 0 3.81.57 5.74.35l1.69.49c.39.46.16 1 .08 1.45s-.48 1.42.29 1.74 1-.56 1.34-1.08.53-1.61 1.66-1.33a2.51 2.51 0 0 1 1.05 3.1 3.46 3.46 0 0 1 -3.14 2.43c-2.2.21-4.44-.13-6.61.44-.52-1.35-1.69-.93-2.66-.93h-144.34c-1.19 0-2.4.08-3.29-1a2.78 2.78 0 0 1 -.55-2.92c.53-1.5 1.75-1.92 3.17-2.02z" fill="#656fcb"/><path d="m257.7 368.45.91.17c6.35 2.82 10.35 7.89 13.4 13.89a10.11 10.11 0 0 0 .39 1.46c.39.94.61 1.91-.37 2.55-1.19.78-1.63-.38-2.21-1.07-2.35-7-6.42-12.65-13.8-14.59-10.26-2.7-20.54 1.88-24.65 12.41-.31.74-.61 1.49-.94 2.22s-.82 1.52-1.81 1.1a1.54 1.54 0 0 1 -.79-2c.21-.71.45-1.4.68-2.09 2.52-5.48 6-10.06 11.61-12.77a27.9 27.9 0 0 1 10.78-2.42c.55.58 1.23.29 1.86.28l2.76.22z" fill="#fd4d0a"/><path d="m313.22 343.87a21.6 21.6 0 0 1 9.4 0z" fill="#cac8b4"/><path d="m199 371.67-.09-6.69c-.42-2.22.22-4.48-.2-6.71l-.08-1a1 1 0 0 1 -.06-1.37v-8.34a.8.8 0 0 1 .66-.27 77 77 0 0 1 20.49 2.58 6.32 6.32 0 0 1 2.47.95.6.6 0 0 1 .17.68c-.17 8.73-.34 17.47-.52 26.69l-4.07-3a8.16 8.16 0 0 1 -2.61-1.41c-.24-.16-.47-.35-.7-.53-5-3.9-3.12-3.7-8.49-.52a6 6 0 0 1 -1.69.66c-1.82.42-3.13 1.82-5 2.61-.56-1-.12-2-.38-3a1.11 1.11 0 0 1 .1-1.33z" fill="#fd4d0a"/><path d="m272.91 388.21c-1.65-.24-3.45-.3-3.09-2.76a1.76 1.76 0 0 0 0-1.91c-1.62-3.61-3.57-7-6.69-9.59a18.9 18.9 0 0 0 -13.66-4.28c-7.9.42-13.6 4.17-17.5 10.88-.47.8-1 1.68-.57 2.72 1 .8 1.64 1.79 1 3.05a3.06 3.06 0 0 1 -3.17 1.91c-1.46-.09-2.94 0-4.4 0-.77 0-1.51 0-1.65 1 .49 2.2 2.06 3 4.1 3q22.78 0 45.57 0c2.27 0 3.81-1.08 4.15-3.49-1.27-1-2.73-.33-4.09-.53z" fill="#33479d"/><path d="m348 379.94c-15.34-1.55-30.69-3.11-46.14-1.95a126 126 0 0 0 -25.31 4c.61.63 1.4.38 2.12.38q44.38 0 88.77 0c.86 0 1.8.29 2.58-.36-7.33-.68-14.67-1.33-22.02-2.07z" fill="#33479d"/><path d="m226.82 382c-1.57-.47-3.12-1-4.71-1.39-11.78-2.71-23.77-3.27-35.77-3-23.4.55-46.68 3.09-70 4.4.69.67 1.56.39 2.34.39q53 0 106.07 0c.68-.02 1.47.25 2.07-.4z" fill="#33479d"/><path d="m199.07 347.48c.89-2.05 2.76-1.82 4.49-1.91a74.74 74.74 0 0 1 19.22 3.29c.57.87.63 1.64-.44 2.18a134 134 0 0 0 -16.05-2.92 39.51 39.51 0 0 0 -5.75-.13c-.62.01-1.17.22-1.47-.51z" fill="#cc3b30"/><path d="m375.55 356.94c-8.05-1.7-16.14-3.21-24.23-4.73a205.08 205.08 0 0 0 -28-3.33 96 96 0 0 0 -38.46 6.22 55.55 55.55 0 0 0 -11 5.19c3.67-1.21 7.23-2.67 10.88-3.9a103.69 103.69 0 0 1 29.84-5.8c10.75-.36 21.34.9 31.93 2.6 14.28 2.3 28.47 5.09 42.69 7.66 2.72.49 5.4 1.37 8.25 1.09-7.32-1.68-14.59-3.46-21.9-5z" fill="#95806d"/><path d="m273.77 368.5c25-10.53 50.84-10.63 77.08-6.46-26.35-5.43-52.3-6.23-77.08 6.46z" fill="#95806d"/><path d="m282.43 373.41c20-6.28 40.35-5.51 60.78-2.84-20.47-3.73-40.84-5.2-60.78 2.84z" fill="#95806d"/><path d="m201.39 345.26a210.08 210.08 0 0 0 -22.29.78c-7.17.75-14.27 1.78-21.35 3-8.55 1.54-16.93 3.83-25.41 5.67-4.05.88-8 2.05-12 3.08a1.74 1.74 0 0 0 1.39.26c14.13-3.38 28.33-6.42 42.73-8.52a199.07 199.07 0 0 1 34.23-2l.43-.08c1.36-1 3.12-1 4.49-1.91a3.4 3.4 0 0 0 -2.22-.28z" fill="#95806d"/><path d="m197.07 363.35a179.84 179.84 0 0 0 -25.64.39c-7.17.5-14.31 1.36-21.41 2.51a133.4 133.4 0 0 0 -14 2.57c20.9-2.66 41.78-5.58 62.94-3.84.04-2.24-.64-1.54-1.89-1.63z" fill="#95806d"/><path d="m144.6 375.1a359.58 359.58 0 0 1 54.4-2.05c0-.46 0-.92 0-1.38-18.21-.38-36.4.02-54.4 3.43z" fill="#95806d"/><path d="m198.66 357.27-.06-1.37a6.23 6.23 0 0 0 -2.64-.34 221.86 221.86 0 0 0 -26.64 1.83c-5.17.61-10.3 1.48-15.45 2.24 14.91-1.48 29.76-3.47 44.79-2.36z" fill="#95806d"/><path d="m222.78 348.86a3.26 3.26 0 0 1 -.44 2.18l.09.46c8 1.92 14.69 6.3 20.78 11.71-5.07-7.27-12.21-11.57-20.43-14.35z" fill="#95806d"/><path d="m214.45 373.21c-2.87-.66-5.73-1.52-8.72-.71a1.71 1.71 0 0 0 -1.38.9l13.49 1.8-2.15-1.74c-.48.21-.83-.16-1.24-.25z" fill="#95806d"/><path d="m363.19 269.92c-4.59 1.35-11.58 3.51-20 6.51-28.25 10.09-48.48 17.55-65.43 35a98.33 98.33 0 0 0 -15.41 20.81 258 258 0 0 0 -5.11-43.26c-1.85-9-3.28-15.79-6.64-24.83a148.33 148.33 0 0 0 -19.23-35.2c-4.2-5.82-8.56-11.51-13-17.17-1-1.31-2-1.91-3.7-.82-7.37 4.72-14.8 9.33-22.22 14-5.71 3.57-11.44 7.1-17.16 10.65 3.89 3.58 7.77 7.18 11.56 10.86 5.44 5.31 10.83 10.67 16 16.28 3.92 4.29 7.93 8.5 11.74 12.88a348 348 0 0 1 23.32 29.37c5.2 7.46 10.31 15 14.12 23.31a64.71 64.71 0 0 1 5.61 20.16c.05.54-.2 1.46.6 1.57v14.36l12-16.52c1 .08 1.34-.93 1.81-1.55q10.53-13.77 22.29-26.5a170.55 170.55 0 0 1 30.55-26.58c1.68-1.25 3.59-2.13 5.3-3.32a270.38 270.38 0 0 1 36.74-19.74c.22-.1.81-.43 1.64-.85 3-1.5 5.48-2.63 7.36-3.43-2.83.93-7.28 2.29-12.74 4.01z" fill="#f7f7e0"/><path d="m247.17 344.3a16.08 16.08 0 0 0 -2.22-3.62c-.33-.29-.66-.58-1-.88a4.22 4.22 0 0 0 -.34-.71 165.46 165.46 0 0 0 -20.61-26.78 186.87 186.87 0 0 0 -16.49-15.84c-8.3-6.91-17-13.35-25.84-19.47l-7.16-4.93a1.21 1.21 0 0 1 -.09.48 11.21 11.21 0 0 0 -6.16-3.8 4 4 0 0 1 -.72.85c-3.43 2.28-6.71 4.78-10 7.23a251 251 0 0 0 -20.91 18c-6.78 6.28-13.06 13.08-19.42 19.78a2.19 2.19 0 0 0 -.84 1.51 2.15 2.15 0 0 0 2 .86 57.73 57.73 0 0 1 6.44.6c8.6.61 17.18 1.42 25.77 2.22 9.62.89 19.22 1.89 28.8 3.11a271.15 271.15 0 0 1 38.12 7.25c8.65 2.41 17.05 5.38 24.24 11a58.15 58.15 0 0 1 4.7 4.45c.52.5 1.2 1.31 1.88.86.83-.54.17-1.47-.15-2.17z" fill="#f7f7e0"/><path d="m253.59 365.71a14.22 14.22 0 0 0 -1.19-4.84 9.72 9.72 0 0 1 -.78-1.46c-1.64-7.49-6-13.33-11.85-18.16-5.09-4.23-11.19-6.66-17.41-8.82-12.75-4.44-26-6.81-39.26-8.66-7-1-14-1.81-21-2.36-7.24-.56-14.46-1.38-21.69-2.08-2.84-.09-5.63-.75-8.49-.51v.05a1.28 1.28 0 0 0 -.14-.29c-1.88-.71-3.89-.66-5.84-.94-1-.15-2-.47-2.94.33a1.73 1.73 0 0 1 -.54 1.18c-6.23 6.32-12 13-17.93 19.67-5.41 6.08-10.89 12.09-16 18.44 8.48-.95 16.87-2.51 25.23-4.16 14.55-2.88 29-6.11 43.56-9.08a212.11 212.11 0 0 1 30.18-4.02 121.25 121.25 0 0 1 26 1.28c8.62 1.36 16.76 3.95 23.86 9.26 5.93 4.45 10.79 9.75 13.52 16.77.4 1 1.16.81 1.94.58a2 2 0 0 0 .77-2.18z" fill="#f7f7e0"/><path d="m257.33 356.43c-.16-.65-.35-1.29-.5-1.94a60.37 60.37 0 0 0 -5-24.55c-4.95-11.69-12.54-21.74-20-31.84-6.11-8.23-12.5-16.26-19.26-24-5.93-6.76-11.88-13.52-18.37-19.77a85.14 85.14 0 0 0 -7-6.93 1.51 1.51 0 0 0 .09-.18c-1.65-2.76-4.2-4.56-6.75-6.36 0 0-.13.05-.2.08a2.91 2.91 0 0 1 -1.25 1.23c-8.88 4.8-17 10.68-25.16 16.63a7.81 7.81 0 0 0 2.59 2.08c15.4 9.79 30.66 19.78 45.18 30.87a174.33 174.33 0 0 1 26 24.47 159.56 159.56 0 0 1 20.56 29.17c3.45 6.45 6.51 13.07 6.81 20.6 0 .76-.06 1.75 1.19 1.75.84-.46.8-1.33.94-2.11a36 36 0 0 0 .13-9.2z" fill="#f7f7e0"/><path d="m412.43 355.08c-6.86-10.08-13.82-20.14-20.43-30.39a12.19 12.19 0 0 0 -8-5.53q-13.26-3.29-26.74-5.39a135.62 135.62 0 0 0 -15.59-2c-7.4-.29-14.84-.51-22.24.74a73.76 73.76 0 0 0 -22.54 7.23c-.57.3-3.82 2.62-3.94 2.66a19.45 19.45 0 0 0 -1.6 1.54c-4.09 4.83-8.25 9.59-12.19 14.53-4.87 6.08-9.65 12.25-13.92 18.79a72.55 72.55 0 0 0 -7.52 11.17.68.68 0 0 0 .91.17 24.72 24.72 0 0 1 1.94-2.68 60.86 60.86 0 0 1 19.43-14.17c10.57-4.88 21.72-7.11 33.25-7.88a42.82 42.82 0 0 1 9.4 0c4.68 0 9.32.54 14 .83 9.42.58 18.56 2.75 27.82 4.26 4.45.72 8.75 2.19 13.28 2.53 1.87.76 3.89.79 5.84 1.16 9.94 1.88 19.92 3.5 30 4.6a5.41 5.41 0 0 0 -1.16-2.17z" fill="#f6f7e0"/><path d="m215.69 373.46c-2.58.55-5-.68-7.54-.68a19.93 19.93 0 0 1 -2.42-.28c1.12-1.23 2.75-1.72 4-2.71.82-.63 1.38 0 1.94.48 1.38 1.05 2.7 2.13 4.02 3.19z" fill="#cdb098"/><path d="m153.86 258.82c36.07 19.88 105.9 73.3 100.08 109.33-2.46-2.93-1.89-11.26-5.8-16-20.27-34.58-110.14-29.09-133.14-35.1 44.58 1.39 115.48 7.61 132.19 29.34-24.14-45.01-62.95-63.14-93.33-87.57z" fill="#ad9680"/><path d="m270.25 347.92c15.6-19.9 32.58-40.93 54.63-54.61-43.1 29.69-73.3 92.46-68.26 71 4.58-49.4-55.62-100.58-77.62-124.56-1.47-.78-5.92-6.31-1.34-2.89 40 38.73 84.95 85.64 81.12 124.28-1.63 7.46 7.36-11.51 11.47-13.22z" fill="#92806d"/><path d="m355.76 117.43a7 7 0 0 1 3.36-4.25q18.23-10.18 36.37-20.55c1.26-.72 1.94-.61 2.55.61a9.33 9.33 0 0 1 2.46 3.11q14.31 25.44 28.69 50.84c.65 1.15 1.51 2.25 1.33 3.72-.37 1.2-1.46 1.64-2.41 2.18-11 6.29-22.05 12.45-33.08 18.66-2.55 1.44-4.91 2.85-5.33 6.08a1 1 0 0 1 -.56.66c-1.42-.24-1.72-1.54-2.29-2.52-6.38-11.08-12.55-22.28-18.91-33.37q-5.26-9.19-10.41-18.45a15.92 15.92 0 0 1 -1.84-4.05 3.09 3.09 0 0 1 .07-2.67z" fill="#f6f7e0"/><path d="m346.13 120.67a11.12 11.12 0 0 1 3.36-1.88 2 2 0 0 1 1.05 1.1c6.2 11.4 12.72 22.61 19.06 33.93 4 7.09 8.1 14.09 12 21.23.58 1.07 1.13 2.13.6 3.39a4.77 4.77 0 0 1 -2.18 1.84c-10.89 6.19-21.83 12.3-32.75 18.43-1.13.63-2.24 1.63-3.72.87-1.73-1.61-2.56-3.82-3.68-5.82q-13.65-24.12-27.25-48.27a6.69 6.69 0 0 1 -1.27-3.52c-.16-.69-1-1.29.25-2 9.74-5.38 19.44-10.83 29.15-16.26.75.13 1.09.72 1.42 1.29 2.13 3.73 4.26 7.45 6.37 11.19a3.38 3.38 0 0 1 .59 2.31c-.44 1.07-1.45 1.46-2.34 2-6.65 3.83-13.37 7.55-20 11.41 6.53-3.56 13-7.25 19.46-10.91 1.09-.61 2.1-1.47 3.47-1.42a3.2 3.2 0 0 1 1.76 3.22c-1.25 2-3.46 2.74-5.37 3.78-5.67 3.1-11.2 6.45-16.87 9.56q8.91-4.84 17.71-9.85c1.65-.95 3.22-2.14 5.17-2.5a3.18 3.18 0 0 1 1.82 3.19c-.57 1.37-1.88 1.87-3 2.52q-9.13 5.22-18.32 10.32a1.71 1.71 0 0 0 -.77.66c6.49-3.63 12.81-7.3 19.21-10.81 1.15-.63 2.21-1.59 3.68-1.4a3.5 3.5 0 0 1 1.7 3.24c-.86 1.43-2.39 2-3.73 2.7-5.65 3.14-11.22 6.42-16.92 9.47a5.06 5.06 0 0 0 -1.7 1.23c6.86-3.83 13.31-7.64 19.9-11.18 1-.52 1.86-1.26 3.06-1.21a3.13 3.13 0 0 1 1.75 3.2c-.68 1.38-2.07 1.87-3.28 2.56-6.32 3.6-12.67 7.14-19 10.8 6.8-3.66 13.48-7.56 20.22-11.33a4.3 4.3 0 0 1 2.66-1 3.31 3.31 0 0 1 1.83 3.18c-.35 1-1.24 1.43-2.08 1.91-6.75 3.9-13.63 7.59-20.34 11.57 6.21-3.28 12.27-6.83 18.4-10.25 1.47-.82 2.79-2 4.63-2 1 .84 2.37 1.32 3 2.64a3.27 3.27 0 0 1 -1.78 1.59c-7.14 4-14.28 8-21.35 12.09 8.59-4.73 17.08-9.64 25.73-14.26a3.8 3.8 0 0 1 2-.05c-2.92-4.76-5.57-9.68-8.3-14.54q-7-12.44-14-24.85c-.62-.96-1.38-1.88-1.01-3.11z" fill="#f6f7e0"/><path d="m311.32 142q10.5 18.51 21 37 5.71 10.09 11.41 20.19c1 1.46 2.21.77 3.33.17 3.81-2 7.54-4.22 11.3-6.34q10.51-5.91 21-11.87a9 9 0 0 1 7.06-1.11 4.62 4.62 0 0 0 5.37-3.19 7.33 7.33 0 0 1 3.87-4.89c10.69-6.07 21.43-12 32.09-18.16 1.19-.68 2.72-1.13 2.53-3q-13-23-25.91-46.07c-2.15-3.81-4.23-7.66-6.34-11.49 1.86-1.38 3-.89 4.11 1.14q15.64 28 31.43 55.9c1.35 2.41 1.27 2.7-1.23 4.11q-16.52 9.31-33.1 18.61c-1.66.92-2.61 1.79-2.24 3.94a4.5 4.5 0 0 1 -2.46 4.86c-2 1.1-3.85 2.29-5.83 3.31a5.18 5.18 0 0 1 -6-1.1c-.84-1.1-1.44-.88-2.38-.34q-10 5.7-20 11.34c-4.87 2.74-9.8 5.36-14.61 8.2-2 1.17-2.94.79-4-1.15-4-7.25-8.12-14.41-12.19-21.61-6.37-11.28-12.69-22.59-19.16-33.82-1.2-2.1-1.25-3.5.95-4.63z" fill="#656fcb"/><path d="m381.77 178.31a3.41 3.41 0 0 0 -.59-2.52c-5.23-9.4-10.69-18.67-15.83-28.13-4.5-8.28-9.36-16.37-14.06-24.55a16.06 16.06 0 0 1 -1.8-4.32c1.39-1 2.87-.62 4.35-.31 1.21-.53 1.57.62 2.25 1.14 2.76 5.5 5.91 10.78 8.91 16.15 3.26 5.82 6.59 11.6 9.81 17.44 4.26 7.71 8.66 15.34 13 23 .44.77.92 1.52 1.38 2.27.28.82-.43.66-.68.53a8.42 8.42 0 0 0 -6.16-.45c-.2.05-.41-.1-.58-.25z" fill="#e0e3cd"/><path d="m356.09 119.62c-1 .17-1.44-.88-2.25-1.14.41-.77 1.27-.73 1.92-1z" fill="#656fcb"/><path d="m381.77 178.31c2.47-1.25 4.87-1.39 7.17.41h.18a.65.65 0 0 0 .07-.21c-.17-3.12 1.31-5.06 4-6.56 11.86-6.58 23.65-13.3 35.45-20a19.73 19.73 0 0 0 1.62-1.14c1.44 1.52.43 2.21-.9 3-11.3 6.35-22.56 12.75-33.86 19.08a5.69 5.69 0 0 0 -3.08 4.36c-.35 2.28-4.07 4.42-6.17 3.58a6.17 6.17 0 0 0 -5.57.43c-11.21 6.34-22.47 12.59-33.64 19-1.83 1.06-2.74 1-3.34-1 .72.58 1.27 0 1.81-.31q17.86-10.05 35.71-20.14a4.15 4.15 0 0 0 .55-.5z" fill="#e0e3cd"/><path d="m342.76 130.64c.5.75 1.33 1.51-.22 2.37q-10.26 5.67-20.46 11.46c-.86.49-1.42.54-2-.45s-.08-1.51.7-2q10.11-5.73 20.22-11.43c.52-.23 1.08-.59 1.76.05z" fill="#e0e3cd"/><path d="m376 169.07c.67 1.13-.22 1.4-.93 1.8-4 2.27-8 4.56-12 6.83q-8.25 4.67-16.54 9.28c-.53.29-1.23 1.29-1.85.17s.6-1.24 1.13-1.54q14.06-8 28.16-15.91c.58-.35 1.2-.85 2.03-.63z" fill="#e0e3cd"/><path d="m342.31 181.94c2.47-1.44 4.76-2.81 7.09-4.12 7.52-4.22 15.05-8.4 22.57-12.6.53-.29 1.08-1.09 1.68-.17s-.33 1.16-.85 1.45q-12.58 7.14-25.22 14.25c-1.36.76-2.71 1.53-4.09 2.27-.37.2-.81.49-1.18 0a.76.76 0 0 1 0-1.08z" fill="#e0e3cd"/><path d="m378.49 173.44c.7 1.24-.39 1.43-1 1.79-3.75 2.14-7.52 4.24-11.29 6.36q-8.46 4.75-16.95 9.5c-.59.33-1.38 1.21-1.92.34-.63-1 .59-1.34 1.23-1.71q14.08-8 28.23-15.88c.46-.27.99-1.03 1.7-.4z" fill="#e0e3cd"/><path d="m364.76 163.54a5.37 5.37 0 0 1 2.78.17q-12.92 7.31-25.83 14.62c-.52.29-1.28 1-1.75.15s.48-1.2 1.09-1.55z" fill="#e0e3cd"/><path d="m360.92 159.94.93 1.5-21.24 11.85-1.78.94c-.49.26-1 .88-1.49.05s.2-1 .71-1.31c3-1.72 6.09-3.43 9.12-5.17q6.88-3.91 13.75-7.86z" fill="#e0e3cd"/><path d="m348.85 138.54.76 1.3-22.67 12.89c-.56.31-1.12 1-1.66.07s.29-1.13.86-1.45z" fill="#e0e3cd"/><path d="m356.15 151.47.78 1.29-22.54 12.72c-.58.33-1.26.88-1.75.09s.43-1.11.95-1.4q11.27-6.38 22.56-12.7z" fill="#e0e3cd"/><path d="m351.23 142.76.73 1.32-18.15 10.42c-1.48.85-3 1.65-4.49 2.46-.53.28-1.12 1.06-1.67.11s.42-1.16.92-1.45c4.57-2.62 9.18-5.19 13.77-7.79 2.97-1.68 5.93-3.38 8.89-5.07z" fill="#e0e3cd"/><path d="m353.61 147 .93 1.52q-11.18 6.25-22.34 12.48c-.6.33-1.36 1.17-1.91.27s.51-1.22 1.11-1.56q10.64-6.08 21.28-12.11c.32-.18.62-.4.93-.6z" fill="#e0e3cd"/><path d="m358.54 155.71.75 1.28-22.83 13c-.51.28-1 .83-1.49 0-.57-1.1.57-1.27 1.09-1.56 6.31-3.62 12.66-7.18 19-10.76 1.16-.62 2.32-1.3 3.48-1.96z" fill="#e0e3cd"/><path d="m322.86 147.58c.83-.5 1.64-1 2.48-1.49 6.08-3.42 12.16-6.85 18.26-10.22.51-.28 1.25-1.36 1.83-.27.45.84-.46 1.27-1.11 1.63q-10 5.63-20 11.21c-.43.24-.93 1-1.53.26-.31-.35-.47-.79.07-1.12z" fill="#e0e3cd"/><path d="m346.13 120.67 24.2 42.82a6.89 6.89 0 0 1 -8.34-1.72q-3.81-5.94-7.59-12.37c-5.18-8.83-9.71-17.43-13.68-25.67a30.35 30.35 0 0 1 5.41-3.06z" fill="#fd4d0a"/><path d="m475.81 217.07q-12.84-10.48-25.63-21c-4.26-3.7-8.59-7.3-13.14-10.64-1.44-.65-1.81.7-2.38 1.4q-8.78 11-17.46 22c-8.38 10.59-16.63 21.29-25.16 31.77-.82 1-1.78 2-1.65 3.49a2.3 2.3 0 0 0 .63 1.14q5.34 4.69 11 9a1.88 1.88 0 0 0 1.65.44 4.92 4.92 0 0 0 2.07 2.75q12.35 10 24.75 20c.68.54 1.3 1.23 2.32 1q21.72-29 43.45-57.94c1.07-1.48.79-2.39-.45-3.41zm-29.76 31.37c-2.49 3.1-4.74 6.39-7.07 9.62-2 2.83-2.29 2.88-5 .76-5.47-4.35-10.87-8.77-16.32-13.15-1.27-1-2.46-2.21-4.11-2.66-.05-.92-1-1.37-1.55-1.93-1.8-1.69-3.82-3.13-5.72-4.71-1.45-1.2-1.66-2.28-.37-3.75 2.15-2.45 4-5.15 6.09-7.66 4.09-5 4.06-4.93 9.13-.85 1.27 1 2.28 2.62 4.22 2.47.13 1.49 1.35 2.2 2.37 3 5.9 4.79 11.75 9.66 17.67 14.44 1.75 1.4 2.14 2.58.66 4.42z" fill="#656fcb"/><path d="m434.35 183.23c-.38-.37-.73-.78-1.13-1.11-4.84-4-7.07-3.75-11 1.15q-7.87 10-15.74 20l-27.28 34.73a.78.78 0 0 0 .75.88c2.64 0 4.71 1.47 7 2.45a4.26 4.26 0 0 0 .51 0c1 1 2.32 1.64 3.28 2.69l16.46-21q6.36-8.09 12.75-16.15 8.54-10.72 17.12-21.42a8 8 0 0 0 -2.72-2.22z" fill="#33479d"/><path d="m383.34 241.51a2.43 2.43 0 0 0 -3.67.16 4.57 4.57 0 0 0 -.68.14c-3.73 2.46-4 5.22-.72 8.09 2.59 2.28 5.37 4.32 8 6.5q17.16 14 34.37 27.92c1.12.9 2.14 2.21 3.9 1.81l3.78-5 1.51-1.78q-23.21-18.91-46.49-37.84z" fill="#f6f7e0"/><path d="m413.53 243.6c-2.89-2.41-5.75-4.86-8.69-7.21-1.28-1-1.58-1.91-.48-3.27 3.33-4.09 6.65-8.19 9.85-12.38 1.29-1.69 2.3-1.68 3.84-.32 2.44 2.15 5.05 4.1 7.58 6.14 7.2 5.95 14.35 12 21.64 17.8 1.54 1.23 1.43 2 .42 3.37-3.19 4.23-6.38 8.45-9.4 12.8-1.18 1.68-1.93 1.35-3.27.26-7.12-5.79-14.32-11.47-21.49-17.19z" fill="#fd4d0a"/><path d="m391.08 262.81c-4.23-4.18-17.37-12.1-17-16.69.94-4.65 5.21-10.3 10.5-7.06 7.68 4.91 13.49 11.23 21.14 17 8.57 8.36 20.39 14.43 26.68 23-4 3.16-13.23-8.65-16.38-10-10.18-8.19-19.85-16.07-30-24.29-1.84-1.32-3.42-3.74-6-2.83-8.09 4.83 1.38 8.69 5.26 12.47 13.37 11.62 27.94 21.18 40 33.29.56 6.14-34.81-24.19-34.2-24.89z" fill="#656fcb"/><path d="m193 98.14 5.14 9.2a2.77 2.77 0 0 1 .39 2c-.53 3 .88 4.83 3.11 6.62 3.07 2.46 6 3 9.33.74 4.93-.37 9.62 1.17 14.37 2q21.23 3.82 42.46 7.69 11.81 2.16 23.62 4.28a7 7 0 0 1 3.13 1.05c1.29.28 2.56.62 3.86.82s2.28.71 2 2.12-1.43 1.22-2.5 1l-19.52-3.48q-31.39-5.53-62.78-11.18a6.7 6.7 0 0 0 -4.94.56c-6.34 3.67-17.86-4.53-16.47-11.75a5 5 0 0 0 -1.21-4.77 11.4 11.4 0 0 1 -4.55-8.53l-36-64.15c-.56-1-1.25-2.16 0-2.95 1.44-.88 2.16.28 2.79 1.42s1.43 2.44 2.16 3.65a5.72 5.72 0 0 1 2.43 2.6c9.41 16.91 19 33.72 28.3 50.7.88 2.4 2.57 4.35 3.68 6.63.59 1.21 1.35 2.32 1.2 3.73z" fill="#fd4d0a"/><path d="m188.44 96.54q2.28 4.26 4.55 8.53l-9.8 13.76c-1.26-1.79-.07-4.3-1.59-4.94s-3.31.16-5.79.39z" fill="#656fcb"/><path d="m168.75 38.09a3.24 3.24 0 0 0 -1.88-1.43c-3.16-.68-6.31-1.43-9.47-2.15q15.12 27.08 30.26 54.15c4.06.27 7-1.75 9.62-4.59-7.65-16.48-17.55-31.56-28.53-45.98z" fill="#f7f7e0"/><path d="m293.42 130c-2.07-4.71-5.08-7.92-10.65-8.71-5.2-.75-10.25-2.55-15.39-3.77-16.32-3.89-32.63-7.83-49.44-9.08-.66 0-1.49.31-2.33-.64a96.37 96.37 0 0 1 22.51 1.3 361.27 361.27 0 0 1 48.37 11.34c.83.25 2.08 1.21 2.56-.33.36-1.15-.89-1.11-1.6-1.32-20.11-5.91-40.33-11.3-61.33-13-.56 0-1.43.38-1.69-.8.95-.11 1.85-.25 2.75-.33 14-1.2 27.84.19 41.65 2.13 6.14.87 12.23 2.06 18.35 3.07.71.12 1.74.67 1.94-.64.15-1-.82-1-1.45-1.18a5.49 5.49 0 0 0 -.9-.17c-16.5-3.18-33.08-5.64-49.94-5.55-3.68 0-7.37.22-11.05.34a4.6 4.6 0 0 1 2.21-1c11.74-2.26 23.63-2.78 35.54-2.61 7.42.11 14.84.59 22.26.86.67 0 1.77.63 2-.66.26-1.62-1.1-1.1-1.86-1.19-1.72-.2-3.44-.31-5.17-.4-18.32-.94-36.61-1.26-54.72 2.44-3.39.69-6.71 1.77-10.74 2.86a149 149 0 0 1 17.22-12.06 334.76 334.76 0 0 1 41.93-21.08c.82-.36 2.4-.47 1.77-1.9-.55-1.24-1.61-.21-2.35.09-8.2 3.34-16.22 7.08-24.1 11.09-13.63 6.93-26.84 14.52-38.74 25 1.24-4 2.51-7.41 3.37-10.94 4.67-19.29 4.81-38.88 3.66-58.54-.07-1.22-.17-2.43-.28-3.65 0-.5-.07-1.09-.76-1.08s-1.17.33-1.14 1.11c0 .61.09 1.22.13 1.83 1 16.07 1 32.12-1.23 48.1-.26 1.81-.59 3.61-.92 5.41s-.65 3.34-1 5c.82-20-1.22-39.7-4.41-59.31-.17-1 .39-3-1.43-2.74-1.61.24-.5 1.88-.39 2.82.82 6.76 1.92 13.49 2.61 20.27 1.53 15.09 2.67 30.21.24 45.32-.33 2.1-.55 4.27-1.92 6.36-1-4.37-1.76-8.47-2.86-12.47-5.47-19.88-13.64-38.73-22.18-57.43-.39-.85-.41-2.78-1.93-2.09s0 1.94.26 2.89a27.7 27.7 0 0 0 1.38 3.04c7.05 15.72 13.77 31.56 18.87 48 1.34 4.28 2.63 8.6 2.82 13.21q-1.28-3-2.54-6c-3.58.51-6.75 1.73-8.65 5.08a20.77 20.77 0 0 0 5.18 9.76c4.13 2.18 8.36 4.19 11.67 7.62a4.37 4.37 0 0 0 .49.23c0 .68.72 1 1.33 1.35q23.11 4.08 46.21 8.15 18.45 3.23 36.91 6.41z" fill="#f7f7e0"/><path d="m187.66 88.66a85.6 85.6 0 0 0 9.62-4.59 31.77 31.77 0 0 1 4.1 9.1c-2.78 1.71-5.89 2.83-8.41 5a88 88 0 0 1 -5.31-9.51z" fill="#656fcb"/><path d="m210.28 115.1 1.12 2.11c-3.14 2.58-5.65 2.78-8.72.72-5.44-3.67-6.17-5.36-4.57-10.59a27.63 27.63 0 0 1 12.17 7.76z" fill="#656fcb"/></g></svg>