<svg viewBox="0 0 614.39 500" xmlns="http://www.w3.org/2000/svg" xmlns:xlink="http://www.w3.org/1999/xlink"><clipPath id="a" transform="translate(70.08 .01)"><path d="m0-.01h500v500h-500z"/></clipPath><path d="m70.08 0h500v500h-500z" fill="#f0f6ff"/><path d="m408.15 440.22c-4.57-2.3-9.86-4-13.85-7.23-4.83-4-3.84-11.34-6.06-16.75-4.45-10.86-15.08-13.15-24.69-17.64-3.72-1.74-6.69-3.74-7.65-7.93-1.35-5.83-.09-12.07-.59-18-1-11.27-6.71-19.84-17-24.57-7.43-3.38-17.32-4.49-23.63-9.84-3.54-3-3.18-7.5-3.29-11.77-.15-6.1-1-11.81-4-17.19-4.42-8-12.25-13.4-19.82-18.08-7.12-4.39-15.2-8.2-20.78-14.61-7.49-8.6-3.16-20.85-5.52-31.12s-10.27-17.41-19.13-22.49c-7.49-4.33-16.88-7.39-22.68-14.07-7.15-8.22-2.5-21-3.19-30.76-.94-13.42-8.6-21.11-19.05-28.55-3.54-2.54-7.6-5.27-9.34-9.46-2.39-5.77-1.33-12.76-1.59-18.84-.52-12-4.63-21.75-14.59-28.8-8.33-5.9-18.5-8.27-27.1-13.65-11.77-7.42-5.6-21.87-8.6-33.38-3.65-14.37-14.88-23.71-28-29.21-6.46-2.7-13.41-4.76-18.93-9.21a26.64 26.64 0 0 1 -6.36-7.07h-82.71v220.55a29.75 29.75 0 0 1 3.92 5c4.08 6.55 3.47 13.77 5.35 20.96 3.45 13.25 14.88 19.69 25.67 26.5 3.68 2.31 8.14 5.17 9.79 8.92 2.86 6.52-.32 15.58.86 22.73 2.32 14 14.47 19.95 24.66 27.79 4.59 3.54 7.53 7.62 8.32 13.45.91 6.61-.18 13.52-.58 20.13s-.44 13.79 1.58 20.27c2.31 7.39 7 12.9 12.54 18.13 4.74 4.49 7.64 7.15 7.16 13.89-.6 8.48.48 16.4 8.11 21.46a33.35 33.35 0 0 0 8.33 3.55c2.08.67 4.73 1 6 2.91a12.81 12.81 0 0 1 1.58 3.77h296.59a33 33 0 0 0 -11.73-9.79z" fill="#fafcff" transform="translate(70.08 .01)"/><path d="m351.82 0a48.73 48.73 0 0 0 -9.82 14.53c-2.74 6.41-3.26 13-4.45 19.82s-3.78 10.85-9.38 14.65c-5.19 3.52-10.82 6.63-15.12 11.29-8.19 8.89-11.18 20.71-15.32 31.71-1.64 4.36-3.67 9.12-7.13 12.36-4.38 4.09-10.83 5-16.41 6.57-13.13 3.68-22 11.61-27.86 23.82-4.73 9.85-7.59 21.86-16 29.37-4.3 3.81-9.47 6.27-14.93 8.22a32.91 32.91 0 0 1 .89 5.76c.69 9.79-4 22.54 3.19 30.76 5.8 6.68 15.19 9.74 22.68 14.07 8.84 5.13 16.7 12.23 19.07 22.54s-2 22.52 5.52 31.12c5.58 6.41 13.66 10.22 20.78 14.61 7.57 4.68 15.4 10.12 19.82 18.08 3 5.38 3.87 11.09 4 17.19.11 4.27-.25 8.77 3.29 11.77 6.31 5.35 16.2 6.46 23.63 9.84a29 29 0 0 1 11.63 9.25 31.87 31.87 0 0 0 10.35-7c4.5-4.84 5.54-10.67 6.4-17 .58-4.17 1.45-7.71 4.1-11.08 5.62-7.12 14.93-11.2 23.17-14.37 10.15-3.91 20.76-8 26.86-17.62 5.93-9.34 3.86-21.11 9.33-30.39 10.33-17.52 35.89-13.78 51.29-23.44 10.57-6.64 11.82-18.71 18.6-28.17v-208.26z" fill="#fff" transform="translate(70.08 .01)"/><g clip-path="url(#a)" fill="#e0f0ff"><path d="m-70.08 450h164.44c5.4-6.34 9.25-14 12-21.89s2.21-17.45-3.56-23.46-17.33-6.08-21.57 1.09c9-7.73 9.55-23.23 1.21-31.61-8.72-8.76-23.61-8.38-34.46-2.47s-18.62 16.07-26 25.95c4.3-3.25 4.25-10.36.67-14.39s-9.65-5.22-14.92-4.05-9.92 4.2-14.15 7.55a100.83 100.83 0 0 0 -24.49 28.28c3.54-2.11 3.3-7.94.12-10.56s-8-2.39-11.65-.45-6.32 5.26-8.75 8.59c-8.28 11.36-14.24 24.15-18.89 37.42z" transform="translate(70.08 .01)"/><path d="m266 450h253.22a275.13 275.13 0 0 0 19.53-27.7c6-9.71 8.46-23.43.7-31.76-5.75-6.18-15.47-7.23-23.54-4.78s-14.93 7.77-21.56 13c6-10.63 11.78-23.29 7.16-34.59-5.24-12.79-22.17-17.26-35.39-13.22s-23.52 14.21-33.25 24c4.73-3.21 5.48-10.47 2.44-15.31s-8.94-7.33-14.66-7.51-11.29 1.62-16.59 3.77a123.47 123.47 0 0 0 -51.68 39.71c3.59-6.21-2.92-14.36-10.06-15s-13.77 3.49-19.55 7.75c-22.02 16.18-41.77 38.75-56.77 61.64z" transform="translate(70.08 .01)"/><path d="m139.55 450h91.86c3.15-3.41 4.34-6.35 6.3-9.06a11.09 11.09 0 0 0 1.88-8.83 7.24 7.24 0 0 0 -11.85-4.36 39 39 0 0 0 4.27-26c-.76-4.06-2.36-8.26-5.73-10.65-4.72-3.36-11.57-2-16.15 1.5s-7.44 8.83-10.15 14a27 27 0 0 0 1.02-7.5 9 9 0 0 0 -3-6.66c-2.38-1.87-5.83-1.89-8.63-.75a21.64 21.64 0 0 0 -7.18 5.45 87.67 87.67 0 0 0 -16.19 23.63 19.6 19.6 0 0 0 .53-6.89 6.64 6.64 0 0 0 -3.93-5.33c-3.31-1.17-6.7 1.39-9.05 4a54.45 54.45 0 0 0 -14 37.45z" transform="translate(70.08 .01)"/></g><path d="m112.14 302 35.12 33.44h48.91c.22-16.61.22-23.59.22-23.59a117 117 0 0 0 26.85-17.41v-67.15l-77.88 42.5c8.66-5 15.29-14.5 20.65-18.75 7.52-6 16.63-11 24-17.25s13.62-13.93 16.75-23c1.46-4.25 2-9.52-1.17-12.72-2.25-2.29-5.84-2.81-9-2.12s-5.94 2.39-8.67 4.08l-52.11 32.09c-7 4.32-14.12 8.71-19.79 14.69s-9.84 13.83-9.68 22.07c.21 11.05 4.12 22.19 5.8 33.12z" fill="#ed7b5f" transform="translate(70.08 .01)"/><path d="m95.54 205.62a356.75 356.75 0 0 1 54.79-22.4c3.79-1.19 7.92-2.32 11.66-1 4.52 1.6 7.25 6.61 7.11 11.39s-2.71 9.24-6.09 12.63-7.55 5.86-11.67 8.29l-30.85 18.22c-3.66 2.17-5.75 3.19-6.82 7.31-3.08 11.82-2.45 18.05-4 26.79-2.3 12.94-17.79 23.2-30.93 23.67z" fill="#ed7b5f" transform="translate(70.08 .01)"/><path d="m173.71 108.92h111.52v211.28h-111.52z" fill="#fff"/><path d="m95.54 115.51v205.26a14.68 14.68 0 0 0 14.68 14.68h98.34a14.68 14.68 0 0 0 14.68-14.68v-205.26a14.68 14.68 0 0 0 -14.68-14.68h-98.34a14.68 14.68 0 0 0 -14.68 14.68zm119.61.29v191.43a13 13 0 0 1 -13 13h-85.57a13 13 0 0 1 -13-13v-191.43a6.9 6.9 0 0 1 6.89-6.89h14.53a5.21 5.21 0 0 1 5.2 5.21 6.93 6.93 0 0 0 6.93 6.93h44.47a6.93 6.93 0 0 0 6.93-6.93 5.22 5.22 0 0 1 5.21-5.21h14.52a6.9 6.9 0 0 1 6.89 6.89z" fill="#1c1b1e" transform="translate(70.08 .01)"/><rect fill="#5edfe5" height="30.14" rx="7.34" width="60.27" x="199.33" y="270.87"/><text font-family="Oduda-Bold, Oduda" font-size="15" font-weight="700" transform="translate(208.03 290.37)">SCAN</text><path d="m202.81 262.26h-86.81a5.58 5.58 0 0 1 -5.56-5.56 5.59 5.59 0 0 1 5.56-5.56h86.84a5.58 5.58 0 0 1 5.55 5.56 5.57 5.57 0 0 1 -5.58 5.56z" fill="#1c1b1e" transform="translate(70.08 .01)"/><path d="m187.28 262.21a5.52 5.52 0 0 1 -.71.05h-71.09a5.07 5.07 0 0 1 -5.07-5.06v-1a5.08 5.08 0 0 1 5.07-5.06h69z" fill="#5edfe5" transform="translate(70.08 .01)"/><path d="m246.18 262.26h-1.72l-2.78-11.11h1.72z" fill="#1c1b1e"/><path d="m250.49 262.26h-1.72l-2.78-11.11h1.72z" fill="#1c1b1e"/><path d="m254.79 262.26h-1.72l-2.78-11.11h1.72z" fill="#1c1b1e"/><text font-family="Montserrat-Light, Montserrat Light" font-size="15" font-weight="300" transform="translate(195.54 239.13)">QR <tspan letter-spacing="-.01em" x="21.58" y="0">c</tspan><tspan x="28.21" y="0">ode</tspan></text><path d="m189.73 136.87h79.48v79.48h-79.48z" fill="#5edfe5"/><g fill="#1c1b1e"><path d="m127.6 144.81v15.56h15.55v-15.56zm12.59 12.6h-9.64v-9.64h9.64z" transform="translate(70.08 .01)"/><path d="m202.78 149.93h5.34v5.34h-5.34z"/><path d="m127.6 192.69v15.56h15.55v-15.56zm12.59 12.6h-9.64v-9.64h9.64z" transform="translate(70.08 .01)"/><path d="m202.78 197.81h5.34v5.34h-5.34z"/><path d="m175.63 192.52v15.55h15.55v-15.55zm12.59 12.59h-9.64v-9.64h9.64z" transform="translate(70.08 .01)"/><path d="m250.82 197.63h5.34v5.34h-5.34z"/><path d="m151.62 168.83v15.56h15.54v-15.56zm12.59 12.6h-9.65v-9.64h9.65z" transform="translate(70.08 .01)"/><path d="m226.8 173.94h5.34v5.34h-5.34z"/><path d="m220.72 144.82h40.54v5.11h-40.54z"/><path d="m168.36 162.53h40.54v5.11h-40.54z" transform="matrix(0 1 -1 0 423.8 -23.54)"/><path d="m217.61 204.28h24.57v3.8h-24.57z"/><path d="m228.26 198.42h13.76v3.8h-13.76z"/><path d="m197.68 162.96h2.95v24.1h-2.95z"/><path d="m200.63 166.21h12v2.63h-12z"/><path d="m200.63 175.71h12v3.58h-12z"/><path d="m215.62 156.44h3.97v3.97h-3.97z"/><path d="m216.74 149.93h3.97v3.97h-3.97z"/><path d="m225.92 156.44h3.97v3.97h-3.97z"/><path d="m208.66 168.84h3.97v3.97h-3.97z"/><path d="m208.66 178.78h3.97v3.97h-3.97z"/><path d="m204.68 183.08h3.97v3.97h-3.97z"/><path d="m217.61 192.7h3.97v3.97h-3.97z"/><path d="m238.2 192.53h3.97v3.97h-3.97z"/><path d="m227.91 187.97h3.97v3.97h-3.97z"/><path d="m230.15 194.51h3.97v3.97h-3.97z"/><path d="m221.58 196.5h3.97v3.97h-3.97z"/><path d="m215.62 183.38h3.97v3.97h-3.97z"/><path d="m215.62 170.83h3.97v3.97h-3.97z"/><path d="m219.6 160.41h3.97v3.97h-3.97z"/><path d="m215.62 164.22h3.97v3.97h-3.97z"/><path d="m252.18 185.36h3.97v3.97h-3.97z"/><path d="m248.21 181.39h3.97v3.97h-3.97z"/><path d="m244.23 177.46h3.97v3.97h-3.97z"/><path d="m240.19 173.49h3.97v3.97h-3.97z"/><path d="m240.19 157.59h3.97v3.97h-3.97z"/><path d="m203.67 162.23h3.97v3.97h-3.97z"/><path d="m200.63 170.7h3.97v3.97h-3.97z"/><path d="m229.47 162.4h3.97v3.97h-3.97z"/><path d="m237.42 162.4h3.97v3.97h-3.97z"/><path d="m233.44 162.4h3.97v3.97h-3.97z"/><path d="m232.24 149.64h3.97v3.97h-3.97z"/><path d="m240.19 149.64h3.97v3.97h-3.97z"/><path d="m248.14 149.64h3.97v3.97h-3.97z"/><path d="m248.14 157.59h3.97v3.97h-3.97z"/><path d="m248.14 165.54h3.97v3.97h-3.97z"/><path d="m248.14 173.49h3.97v3.97h-3.97z"/><path d="m240.26 181.43h3.97v3.97h-3.97z"/></g><path d="m181.78 144.82v-15.89h15.9" fill="none" stroke="#1c1b1e" stroke-linecap="round" stroke-linejoin="round" stroke-width=".69"/><path d="m277.16 144.82v-15.89h-15.9" fill="none" stroke="#1c1b1e" stroke-linecap="round" stroke-linejoin="round" stroke-width=".69"/><path d="m277.16 208.41v15.89h-15.9" fill="none" stroke="#1c1b1e" stroke-linecap="round" stroke-linejoin="round" stroke-width=".69"/><path d="m181.78 208.41v15.89h15.9" fill="none" stroke="#1c1b1e" stroke-linecap="round" stroke-linejoin="round" stroke-width=".69"/><path d="m177.81 167.21h103.33v1.59h-103.33z" fill="#ea134b"/><path d="m133.4 287.35a32.44 32.44 0 0 0 -5.89 20c9.54 11.32 18.76 23.67 24 37.49s5.36 30.51-3.51 42.34c-8.58 11.45-24.71 16.19-38.47 12.28-12.53-3.58-22.68-13.46-29.33-24.74a118.28 118.28 0 0 1 -6.75-13.4 189.78 189.78 0 0 1 -8-23c-.37-12.14 0-28.38 1.67-39a133.55 133.55 0 0 0 41.88-38.81c2.39-3.42 4.72-7.07 8.19-9.4 4.59-3.05 10.26-3.29 15.85-3.89a33.73 33.73 0 0 0 9.46-2.07c2.86-1.2 5.39-3.06 8.22-4.32a12.28 12.28 0 0 1 6.87-1.13 6.61 6.61 0 0 1 1.08.29 6.33 6.33 0 0 1 1 .42c3.9 2 4.92 7.16 4.69 11.56a37.91 37.91 0 0 1 -30.92 35.38z" fill="#ed7b5f" transform="translate(70.08 .01)"/><path d="m67.09 299.26s7.39-26.26 8.91-39.73.5-39.26 5.73-44.82 13.81-9.09 13.81-9.09v71.2l-11.46 17.24z" fill="#ed7b5f" transform="translate(70.08 .01)"/><path d="m65.42 338.28c-2 18.72-21.09 101.62-24.69 111.72h106s-3.59-33-1.79-37.74c23.13-6.52 51.21-41.71 51.21-76.82h-48.89z" fill="#ed7b5f" transform="translate(70.08 .01)"/><path d="m242.34 262.73a20 20 0 0 1 -1.74 5.27 97.46 97.46 0 0 1 -13.35 22c-1.27 1.53-2.61 3-4 4.43v-34.7a56.21 56.21 0 0 1 5.4-3.58 16.17 16.17 0 0 1 4.1-1.7c3.17-.69 6.92.17 8.66 2.91a7.87 7.87 0 0 1 .93 5.37z" fill="#ed7b5f" transform="translate(70.08 .01)"/><path d="m241.34 233.12a20.1 20.1 0 0 1 -2.39 7.5 58.65 58.65 0 0 1 -12.48 16.38c-1.05 1-2.13 1.89-3.23 2.76v-32.47a47 47 0 0 1 4.28-2.09 17.11 17.11 0 0 1 3.42-1 9.24 9.24 0 0 1 7.83 1.76 8.89 8.89 0 0 1 2.57 7.16z" fill="#ed7b5f" transform="translate(70.08 .01)"/><path d="m153.62 251c-2.92 2.51-6.83 3.46-10.58 4.33a10.56 10.56 0 0 1 -4.82.36 6.61 6.61 0 0 1 -4.27-3.78 11.58 11.58 0 0 1 -1-4.69 34.1 34.1 0 0 0 9.46-2.08c2.86-1.2 5.39-3.06 8.22-4.31a12 12 0 0 1 6.87-1.12 12.28 12.28 0 0 1 -3.88 11.29z" fill="#f2ae8c" transform="translate(70.08 .01)"/><path d="m127.51 307.36a32.44 32.44 0 0 1 5.89-20 37.87 37.87 0 0 0 30.65-32.47c-.26 1-.54 2-.89 2.92a35.38 35.38 0 0 1 -14.09 17.71 39.75 39.75 0 0 1 -13 5.84c-2.51.58-6 1.58-8.59.58-.58 0-1.15.05-1.72.05 1.48 2.68 0 5.79-.68 8.78a48.59 48.59 0 0 1 -10.36 20.5c6.17-.51 11.25 4.32 15.06 9.19a81.52 81.52 0 0 1 15.53 33.38c1.44 6.82 1.94 14.12-.69 20.58-3.91 9.59-14.4 15.48-24.75 15.78s-20.43-4.2-28.6-10.55c-6.74-5.25-12.4-11.71-17.82-18.33a118.28 118.28 0 0 0 6.75 13.4c6.65 11.28 16.8 21.16 29.36 24.75 13.76 3.91 29.89-.83 38.47-12.28 8.87-11.83 8.78-28.52 3.51-42.34s-14.49-26.17-24.03-37.49z" fill="#540031" opacity=".2" transform="translate(70.08 .01)"/><path d="m113.67 256.81 6.94 8.64" fill="none" stroke="#bd543b" stroke-miterlimit="10" stroke-width=".65" transform="translate(70.08 .01)"/><path d="m117.74 253.92 7.14 8.93" fill="none" stroke="#bd543b" stroke-miterlimit="10" stroke-width=".65" transform="translate(70.08 .01)"/><path d="m121.65 251.44-.24-.4 6.68 8.37" fill="none" stroke="#bd543b" stroke-miterlimit="10" stroke-width=".65" transform="translate(70.08 .01)"/><path d="m93.43 441.45q2.89-14.55 5.78-29.1c.47-2.33.89-4.9-.32-6.94-1-1.6-2.72-2.51-4.4-3.32s-3.45-1.54-5.11-.91-2.5 2.33-3.22 3.91q-8.3 18.24-15.52 37" fill="none" stroke="#bd543b" stroke-miterlimit="10" stroke-width=".65" transform="translate(70.08 .01)"/><path d="m130.81 442.25q-2.58-8.43-5.15-16.87a15.72 15.72 0 0 0 -2.26-5.1 10.2 10.2 0 0 0 -5.37-3.37 5.43 5.43 0 0 0 -4 .1c-1.6.85-2.2 2.78-2.66 4.53q-2.61 9.94-5.21 19.9" fill="none" stroke="#bd543b" stroke-miterlimit="10" stroke-width=".65" transform="translate(70.08 .01)"/><path d="m155.08 366.94a44.75 44.75 0 0 1 -5 17.14c-2.81 5.12-8 9.53-13.11 12.41-9.08 5.17-21 5.68-30.48 2s-18.22-11.23-23.8-19.8" fill="none" stroke="#bd543b" stroke-miterlimit="10" stroke-width=".65" transform="translate(70.08 .01)"/><path d="m81.24 218.38 5.22 2.19" fill="none" stroke="#bd543b" stroke-miterlimit="10" stroke-width=".65" transform="translate(70.08 .01)"/><path d="m82 216.24 5.37 1.92" fill="none" stroke="#bd543b" stroke-miterlimit="10" stroke-width=".65" transform="translate(70.08 .01)"/><path d="m235 232.75a9.35 9.35 0 0 0 -3.26 3 5.1 5.1 0 0 0 -.95 2.45 2.73 2.73 0 0 0 1 2.36 2.52 2.52 0 0 0 3.69-1.33 3.18 3.18 0 0 0 -1.92-3.7 4.35 4.35 0 0 0 -4.29.84 7 7 0 0 0 -2.18 3.95 18.86 18.86 0 0 0 -.24 4.57" fill="none" stroke="#bd543b" stroke-miterlimit="10" stroke-width=".65" transform="translate(70.08 .01)"/><path d="m235.25 258a6.76 6.76 0 0 0 -4.45 8.61 4.82 4.82 0 0 0 2.28 2.85 3.1 3.1 0 0 0 3.49-.41 3 3 0 0 0 -.65-4.49 4.2 4.2 0 0 0 -4.84.5 6.87 6.87 0 0 0 -2.19 4.58 20.13 20.13 0 0 0 .33 5.19" fill="none" stroke="#bd543b" stroke-miterlimit="10" stroke-width=".65" transform="translate(70.08 .01)"/><path d="m147.26 335.45c3.21 7 6.6 14.23 7.46 21.9a45.83 45.83 0 0 0 -3.36-21.9z" fill="#bd543b" transform="translate(70.08 .01)"/><path d="m250.78 335.45h-33.44l5.31 4.78z" fill="#bd543b"/><path d="m165.62 276.83-14.23 12.78 14.32-22.75z" fill="#bd543b"/><path d="m226.47 257c-1.05 1-2.13 1.89-3.23 2.76v-20.18z" fill="#bd543b" transform="translate(70.08 .01)"/><path d="m227.25 290c-1.27 1.53-2.61 3-4 4.43v-19.13z" fill="#bd543b" transform="translate(70.08 .01)"/><path d="m377.01 154.43h132.47v132.47h-132.47z" fill="#5edfe5"/><path d="m320.17 167.66v25.93h25.93v-25.93zm21 21h-16.07v-16.07h16.07z" fill="#1c1b1e" transform="translate(70.08 .01)"/><path d="m398.76 176.18h8.9v8.9h-8.9z" fill="#1c1b1e"/><path d="m320.17 247.46v25.93h25.93v-25.93zm21 21h-16.07v-16.07h16.07z" fill="#1c1b1e" transform="translate(70.08 .01)"/><path d="m398.76 255.98h8.9v8.9h-8.9z" fill="#1c1b1e"/><path d="m400.22 247.18v25.91h25.93v-25.91zm21 21h-16.07v-16.08h16.07z" fill="#1c1b1e" transform="translate(70.08 .01)"/><path d="m478.82 255.69h8.9v8.9h-8.9z" fill="#1c1b1e"/><path d="m360.2 207.69v25.93h25.92v-25.93zm21 21h-16.08v-16.07h16.08z" fill="#1c1b1e" transform="translate(70.08 .01)"/><path d="m438.79 216.21h8.9v8.9h-8.9z" fill="#1c1b1e"/><path d="m428.66 167.67h67.57v8.51h-67.57z" fill="#1c1b1e"/><path d="m388.11 197.2h67.57v8.51h-67.57z" fill="#1c1b1e" transform="matrix(0 1 -1 0 693.43 -220.43)"/><path d="m423.47 266.77h40.95v6.34h-40.95z" fill="#1c1b1e"/><path d="m441.23 257h22.94v6.34h-22.94z" fill="#1c1b1e"/><path d="m390.25 197.9h4.92v40.17h-4.92z" fill="#1c1b1e"/><path d="m395.18 203.32h20v4.38h-20z" fill="#1c1b1e"/><path d="m395.18 219.15h20v5.96h-20z" fill="#1c1b1e"/><path d="m420.16 187.03h6.62v6.62h-6.62z" fill="#1c1b1e"/><path d="m422.03 176.18h6.62v6.62h-6.62z" fill="#1c1b1e"/><path d="m437.32 187.03h6.62v6.62h-6.62z" fill="#1c1b1e"/><path d="m408.56 207.7h6.62v6.62h-6.62z" fill="#1c1b1e"/><path d="m408.56 224.28h6.62v6.62h-6.62z" fill="#1c1b1e"/><path d="m401.93 231.45h6.62v6.62h-6.62z" fill="#1c1b1e"/><path d="m423.47 247.47h6.62v6.62h-6.62z" fill="#1c1b1e"/><path d="m457.8 247.18h6.62v6.62h-6.62z" fill="#1c1b1e"/><path d="m440.64 239.58h6.62v6.62h-6.62z" fill="#1c1b1e"/><path d="m444.38 250.5h6.62v6.62h-6.62z" fill="#1c1b1e"/><path d="m430.1 253.81h6.62v6.62h-6.62z" fill="#1c1b1e"/><path d="m420.16 231.93h6.62v6.62h-6.62z" fill="#1c1b1e"/><path d="m420.16 211.01h6.62v6.62h-6.62z" fill="#1c1b1e"/><path d="m426.78 193.66h6.62v6.62h-6.62z" fill="#1c1b1e"/><path d="m420.16 200.01h6.62v6.62h-6.62z" fill="#1c1b1e"/><path d="m481.1 235.25h6.62v6.62h-6.62z" fill="#1c1b1e"/><path d="m474.47 228.62h6.62v6.62h-6.62z" fill="#1c1b1e"/><path d="m467.85 222.07h6.62v6.62h-6.62z" fill="#1c1b1e"/><path d="m461.11 215.45h6.62v6.62h-6.62z" fill="#1c1b1e"/><path d="m461.11 188.96h6.62v6.62h-6.62z" fill="#1c1b1e"/><path d="m400.24 196.7h6.62v6.62h-6.62z" fill="#1c1b1e"/><path d="m395.18 210.8h6.62v6.62h-6.62z" fill="#1c1b1e"/><path d="m443.24 196.97h6.62v6.62h-6.62z" fill="#1c1b1e"/><path d="m456.49 196.97h6.62v6.62h-6.62z" fill="#1c1b1e"/><path d="m449.86 196.97h6.62v6.62h-6.62z" fill="#1c1b1e"/><path d="m447.86 175.71h6.62v6.62h-6.62z" fill="#1c1b1e"/><path d="m461.11 175.71h6.62v6.62h-6.62z" fill="#1c1b1e"/><path d="m474.36 175.71h6.62v6.62h-6.62z" fill="#1c1b1e"/><path d="m474.36 188.96h6.62v6.62h-6.62z" fill="#1c1b1e"/><path d="m474.36 202.2h6.62v6.62h-6.62z" fill="#1c1b1e"/><path d="m474.36 215.45h6.62v6.62h-6.62z" fill="#1c1b1e"/><path d="m461.22 228.7h6.62v6.62h-6.62z" fill="#1c1b1e"/><path d="m522.72 167.67v-26.49h-26.49" fill="none" stroke="#1c1b1e" stroke-linecap="round" stroke-linejoin="round" stroke-width=".86"/><path d="m522.72 273.65v26.49h-26.49" fill="none" stroke="#1c1b1e" stroke-linecap="round" stroke-linejoin="round" stroke-width=".86"/><path d="m363.76 273.65v26.49h26.49" fill="none" stroke="#1c1b1e" stroke-linecap="round" stroke-linejoin="round" stroke-width=".86"/><path d="m363.76 167.67v-26.49h26.49" fill="none" stroke="#1c1b1e" stroke-linecap="round" stroke-linejoin="round" stroke-width=".86"/><path d="m357.14 204.99h172.21v2.65h-172.21z" fill="#ea134b"/><path d="m293.32 125.77 236.03 79.22h-172.21l-63.82-60.17z" fill="#1520e8" opacity=".1"/></svg>